<svg xmlns="http://www.w3.org/2000/svg" viewBox="0 0 113.23 149.3"><defs><style>.cls-1{fill:#691d1d;}.cls-2{fill:#a1d96a;}.cls-3{fill:#f21b54;}.cls-4{fill:#f28cb1;}.cls-5{fill:#84143d;}.cls-6{fill:#5b7a34;}.cls-7{fill:#d3edb9;}.cls-8{fill:#fff;}</style></defs><g id="Calque_1" data-name="Calque 1"><path class="cls-1" d="M98.33,71.56a2.07,2.07,0,0,1-1-.29,2.11,2.11,0,0,1-.76-.78,2.24,2.24,0,0,1,0-2.16,1.93,1.93,0,0,1,.76-.79,2.07,2.07,0,0,1,2.84.76l0,0a2.25,2.25,0,0,1,.27,1.08,2.15,2.15,0,0,1-.28,1.08,2.1,2.1,0,0,1-1.81,1.07Zm0-3.93a1.73,1.73,0,0,0-.86.23,1.64,1.64,0,0,0-.64.64,1.92,1.92,0,0,0-.23.91,1.86,1.86,0,0,0,.22.89,1.74,1.74,0,0,0,.64.65,1.65,1.65,0,0,0,.87.24,1.71,1.71,0,0,0,.88-.24,1.62,1.62,0,0,0,.63-.64,1.81,1.81,0,0,0,0-1.8,1.67,1.67,0,0,0-.64-.65A1.8,1.8,0,0,0,98.33,67.63Zm.21,2.21h.94v.46H97.11v-.85a1.21,1.21,0,0,1,.2-.72.61.61,0,0,1,.54-.26.5.5,0,0,1,.48.34.55.55,0,0,1,.24-.26.87.87,0,0,1,.39-.07h.48v.46a2.44,2.44,0,0,1-.54,0,.41.41,0,0,0-.3.1.52.52,0,0,0-.1.34Zm-.37,0v-.41a.64.64,0,0,0-.09-.36.25.25,0,0,0-.23-.15.33.33,0,0,0-.28.11.74.74,0,0,0-.08.39v.42Z"/><polygon class="cls-2" points="73.36 33.22 81.88 26.66 81.88 15.18 81.88 13.22 73.36 13.22 72.6 14.58 70.74 11.91 68.11 7.32 64.51 4.04 61.55 2.4 58.93 7.32 57.95 11.25 57.99 16.05 56.16 15.24 53.69 16.82 53.69 20.76 55.65 25.35 58.6 29.94 63.52 33.22 70.08 33.22 73.36 33.22"/><path class="cls-3" d="M83.85,55.51,73.29,46.89l-9.77-3.51L51.06,42.07,36.64,47,23.22,50.9S13.36,61.74,12.37,61.41s-8.68,7-9.09,7.59S1.55,81.41,1.55,81.41L4.83,95.19l10.75,11.28L18,110.92l12.78,7.87,7.55,3.28,14.09,1.64,15.09-1.64,12.64-6,7-12.19L93.65,89l1-15Z"/><polygon class="cls-2" points="38.28 54.2 33.73 55.49 31.72 59.77 30.74 62.07 34.67 62.73 38.28 60.43 39.91 56.83 38.28 54.2"/><path class="cls-4" d="M89.1,65c6.45,49-53,60-71.15,45.9l29.83,12.79H60.57l12.79-4.26,8.52-7.87,9.18-9.51,1.31-11.15,2.3-11.8L91.06,68Z"/><path class="cls-5" d="M18,110.92,4.83,94.53,1.55,81.41,3.22,69.29l6.56-6.55L23.22,52.9C7,72.37,2.85,93.66,18,110.92Z"/><path class="cls-5" d="M66.14,52.56a1.64,1.64,0,0,1-1.56-1.72,1.62,1.62,0,0,1,1.47-1.55l12.16-.74a1.64,1.64,0,0,1,.2,3.28l-12.17.73Z"/><path class="cls-6" d="M72.68,33.22H64.07c-5.44-3.06-8.7-8.57-9.71-16.47a2,2,0,1,1,3.81-1.23,2.22,2.22,0,0,1,.09.73c1.14,9,5.23,13.84,12.86,15.37A2,2,0,0,1,72.68,33.22Z"/><path class="cls-7" d="M82.22,13.55C76,18.66,71.83,24.81,70.9,33.06l5.42-2.14,4.59-3.6,1.64-5.58Z"/><path class="cls-7" d="M68.44,19.78c-5.65-4.17-5.53-10.33-5.25-16.73l5.25,3.28,2.29,4.59,1.64,4.92Z"/><path class="cls-5" d="M58.6,69.29a1.64,1.64,0,0,1-.43-3.22l.86-.23c7-1.93,13.6-3.74,21.23-2.08A1.64,1.64,0,1,1,79.77,67l-.2,0c-6.84-1.49-13.08.23-19.67,2L59,69.2A1.64,1.64,0,0,1,58.6,69.29Z"/><path class="cls-5" d="M34,84.19a9,9,0,0,1-7.27-3.33c-2-2.55-2.22-5.92-.54-8A1.64,1.64,0,0,1,29,74.5a1.93,1.93,0,0,1-.28.36c-.61.76-.57,2.49.56,3.94,1.9,2.44,5.61,2.72,9.94.75a1.64,1.64,0,0,1,1.35,3A16.11,16.11,0,0,1,34,84.19Z"/><path class="cls-1" d="M53.53,125.45c-9.93,0-20.51-3.14-30.08-9A56.38,56.38,0,0,1,6.32,100.82,33.42,33.42,0,0,1,0,82.24C0,74.55,3.06,63.4,18.17,53.92c11.76-7.38,22-11.69,31.19-13.17,11.62-1.87,21.88.84,30.47,8a44.08,44.08,0,0,1,5.47,62h0a40.11,40.11,0,0,1-29.18,14.52A14,14,0,0,1,53.53,125.45Zm2.89-82c-10.36,0-22.37,4.42-36.51,13.29C9,63.61,3.22,72.43,3.28,82.26c.07,11.38,8.25,23.13,21.88,31.43,17.62,10.75,42.28,13.4,57.63-4.91h0a40.82,40.82,0,0,0-5.06-57.44,32.14,32.14,0,0,0-21.31-7.91Z"/><path class="cls-1" d="M68.53,34.93a16.64,16.64,0,0,1-2.34-.17H66l-.4-.06a16.3,16.3,0,0,1-13.31-16,16.66,16.66,0,0,1,.37-3.46l3.2.7a13.4,13.4,0,0,0-.29,2.76A13,13,0,0,0,66.17,31.44l.39.06h.08A13,13,0,0,0,80.64,14a1.52,1.52,0,0,1-.12-.59h1.65l1.52-.59A16.23,16.23,0,0,1,68.55,34.93Z"/><path class="cls-1" d="M62.45,33.75a16.17,16.17,0,0,1-10.15-15,16.66,16.66,0,0,1,.37-3.46A1.64,1.64,0,0,1,54.32,14a12.35,12.35,0,0,1,4.16.85l-1.2,3a9.21,9.21,0,0,0-1.63-.47,11.67,11.67,0,0,0-.07,1.32,12.91,12.91,0,0,0,8.1,12Z"/><path class="cls-1" d="M61.12,7.79l-3-1.27A23.77,23.77,0,0,1,61.71.59,1.63,1.63,0,0,1,63.88.28a21.24,21.24,0,0,1,3.47,2.88L65,5.45a16.52,16.52,0,0,0-1.7-1.54A20,20,0,0,0,61.12,7.79Z"/><path class="cls-1" d="M68.53,34.93a15.79,15.79,0,0,1-2.38-.18l.49-3.24A13,13,0,0,0,80.64,14a1.52,1.52,0,0,1-.12-.59h1.65l1.52-.59A16.23,16.23,0,0,1,68.55,34.94Z"/><path class="cls-1" d="M61.16,26.73A1.63,1.63,0,0,1,59.8,26C55.57,19.77,55.06,14,58.09,6.53A24,24,0,0,1,61.69.59,1.63,1.63,0,0,1,63.86.28a21.24,21.24,0,0,1,3.47,2.88,21.64,21.64,0,0,1,5.5,10.16A16,16,0,0,1,80,11.65a17.17,17.17,0,0,1,2.37.17,1.64,1.64,0,1,1-.4,3.25l-.15,0A13.79,13.79,0,0,0,80,14.93a12.82,12.82,0,0,0-7.29,2.24h-.06l-.15.09A1.64,1.64,0,0,1,70,16.09,18.78,18.78,0,0,0,65,5.41a19.17,19.17,0,0,0-1.71-1.54,20.44,20.44,0,0,0-2.16,3.88C58.56,14.09,59,18.84,62.54,24.13a1.64,1.64,0,0,1-.44,2.28h0A1.66,1.66,0,0,1,61.16,26.73Z"/><path class="cls-1" d="M65.58,34.66A16.26,16.26,0,0,1,52.3,18.74a16.66,16.66,0,0,1,.37-3.46l3.2.7a13.4,13.4,0,0,0-.29,2.76A13,13,0,0,0,66.17,31.48Z"/><path class="cls-1" d="M68.7,21.81a1.65,1.65,0,0,1-.54-.09,1.63,1.63,0,0,1-1-2.08h0a10.11,10.11,0,0,1,3.52-5,1.65,1.65,0,0,1,2,2.63h0a6.86,6.86,0,0,0-2.38,3.48A1.64,1.64,0,0,1,68.7,21.81Z"/><path class="cls-1" d="M58.22,69.29a1.61,1.61,0,0,1-1.57-1.18c-.26-.88-.4-1.47-.51-2a14.87,14.87,0,0,0-.75-2.46,1.64,1.64,0,0,1,3-1.32l.06.15a19.31,19.31,0,0,1,.89,2.89h0c5.78-2.12,13.65-4,21.14-2.66A1.64,1.64,0,0,1,79.9,66c-7.52-1.37-15.61,1-21.08,3.14A2,2,0,0,1,58.22,69.29Z"/><path class="cls-1" d="M24.87,45.29h-.15a1.63,1.63,0,0,1-1.49-1.76v0c.33-3.61,2.8-6.92,6.62-8.85a14.11,14.11,0,0,1,13.59.25,1.64,1.64,0,1,1-1.56,2.88l-.14-.08a10.81,10.81,0,0,0-10.41-.13c-2.8,1.42-4.61,3.75-4.83,6.23A1.66,1.66,0,0,1,24.87,45.29Z"/><path class="cls-1" d="M35.8,83.37a12.11,12.11,0,0,1-5.45-1.26,8.23,8.23,0,0,1-4.59-8.69,1.64,1.64,0,0,1,3.25.39,5,5,0,0,0,2.84,5.38,9.09,9.09,0,0,0,9.7-1.13,1.64,1.64,0,1,1,2.21,2.43A12,12,0,0,1,35.8,83.37Z"/><path class="cls-1" d="M65.22,52.74a1.64,1.64,0,0,1-.61-3.16c3.44-1.39,8.16-3.37,12.33-5.12,3.41-1.43,6.36-2.67,8-3.3a1.64,1.64,0,0,1,1.21,3.05c-1.56.62-4.49,1.85-7.89,3.27-4.18,1.76-8.92,3.75-12.38,5.14A1.84,1.84,0,0,1,65.22,52.74Z"/><path class="cls-1" d="M31.81,65.19a3.2,3.2,0,0,1-2.31-.91c-2-2-.32-5.94,2.46-8.71s6.66-4.51,8.71-2.46.32,5.94-2.45,8.72h0C36.29,63.76,33.82,65.19,31.81,65.19Zm6.49-9.7c-.6,0-2.22.59-4,2.4s-2.4,3.42-2.4,4c.59,0,2.22-.6,4-2.4s2.39-3.41,2.4-4Z"/><path class="cls-8" d="M39.41,129.38,36,127.92l-7.12,5.39q-5,3.81-9,2.15A5.92,5.92,0,0,1,16.48,132a6.61,6.61,0,0,1,.18-5,7.93,7.93,0,0,1,3-3.53,11.05,11.05,0,0,1,4.86-1.78,12.8,12.8,0,0,1,4.23.22,31.75,31.75,0,0,1,5.52,1.87l.91.39,1.75-1.39a11.52,11.52,0,0,1,7.12-2.91,14.14,14.14,0,0,1,5.31,1.29,2.17,2.17,0,0,1,1.08.86,1.25,1.25,0,0,1,0,1.16,2.33,2.33,0,0,1-.43.61l-.24.24-4.39,4.45.95.4.32.14c.93.39,1.22,1,.88,1.79a1.74,1.74,0,0,1-1.1,1,2.16,2.16,0,0,1-1.6-.07l-.34-.14-1.57-.66-2.8,2.81,2,.86.32.13c.93.39,1.23,1,.89,1.78a1.74,1.74,0,0,1-1.1,1,2.24,2.24,0,0,1-1.61-.07l-.33-.14-2.66-1.12a3,3,0,0,1-1.52-1.29,1.93,1.93,0,0,1-.07-1.72,6.2,6.2,0,0,1,1.33-1.72Zm-7.21-3-1-.45a11.35,11.35,0,0,0-6.2-1.06,7.17,7.17,0,0,0-3,1.22,5.21,5.21,0,0,0-1.87,2.23,3.16,3.16,0,0,0-.09,2.34,2.59,2.59,0,0,0,1.49,1.61c1.25.53,2.7.16,4.36-1.09Zm9.68.58,3.64-3.66a4,4,0,0,0-2.57-.09,11.4,11.4,0,0,0-3.2,1.86l-.87.63Z"/><path class="cls-8" d="M41.56,139.59a4.44,4.44,0,0,1-1.69-.35l-3-1.26a4.91,4.91,0,0,1-2.51-2.2,3.92,3.92,0,0,1-.15-3.44,4.82,4.82,0,0,1,.6-1l-4.76,3.6c-3.95,3-7.66,3.81-11,2.4a7.87,7.87,0,0,1-4.47-4.64,8.59,8.59,0,0,1,.21-6.53,10,10,0,0,1,3.72-4.42,13.14,13.14,0,0,1,5.72-2.1,14.73,14.73,0,0,1,4.91.25,32.91,32.91,0,0,1,5.7,1.91l.81-.65A13.52,13.52,0,0,1,44,117.81h0a15.76,15.76,0,0,1,6.07,1.45,4.07,4.07,0,0,1,2,1.73,3.3,3.3,0,0,1,.14,2.92,4.14,4.14,0,0,1-.84,1.23l-.24.24-2.51,2.55a3.11,3.11,0,0,1,.68,3.61A3.75,3.75,0,0,1,47,133.66a4.12,4.12,0,0,1-2.48.08,3,3,0,0,1,.57,3.51,3.73,3.73,0,0,1-2.29,2.14A4.48,4.48,0,0,1,41.56,139.59ZM26.22,126.74a4.65,4.65,0,0,0-.91.07,5.13,5.13,0,0,0-2.18.88A3.27,3.27,0,0,0,22,129.06a1.15,1.15,0,0,0,0,.89.59.59,0,0,0,.37.43c.67.28,1.66-.3,2.37-.84L28.1,127A8,8,0,0,0,26.22,126.74Z"/><path class="cls-8" d="M52.8,136.78l-3.38,8.71c-.46,1.2-1.16,1.81-2.1,1.82a1.32,1.32,0,0,1-.93-.34,1.13,1.13,0,0,1-.4-.85,4.23,4.23,0,0,1,.32-1.27l6.25-16.12a1.75,1.75,0,0,1,1.7-1.24,1.52,1.52,0,0,1,1.36.79,3,3,0,0,1,2.29-1,2.78,2.78,0,0,1,2.3,1,4.32,4.32,0,0,1,.92,2.81,7.4,7.4,0,0,1-2,5.44,3.8,3.8,0,0,1-1.37,1,6.17,6.17,0,0,1-2,.29,6.38,6.38,0,0,1-1.9-.16A2.74,2.74,0,0,1,52.8,136.78ZM53.87,134a2.16,2.16,0,0,0,.65.76,2,2,0,0,0,1,.16,1.79,1.79,0,0,0,1.48-.74,5,5,0,0,0,1-3q0-1.32-1.26-1.29a2,2,0,0,0-1.93,1.61.89.89,0,0,1-.11.3Z"/><path class="cls-8" d="M47.29,149.29a3.3,3.3,0,0,1-2.24-.86A3.12,3.12,0,0,1,44,146.12a5.3,5.3,0,0,1,.45-2L50.69,128a3.74,3.74,0,0,1,3.54-2.52,3.27,3.27,0,0,1,1.44.27,5,5,0,0,1,2.21-.52A4.74,4.74,0,0,1,61.75,127,6.31,6.31,0,0,1,63.13,131a9.33,9.33,0,0,1-2.53,6.86,5.74,5.74,0,0,1-2.12,1.45,8,8,0,0,1-2.66.42,11.14,11.14,0,0,1-2-.12l-2.54,6.54a4.21,4.21,0,0,1-3.94,3.11Z"/><path class="cls-8" d="M67.5,133.07l1.48-.36c1.1-.27,1.74,0,1.93.76a1.54,1.54,0,0,1-.27,1.39,2.77,2.77,0,0,1-1.53.84l-2.08.51a3.18,3.18,0,0,1-1.93,0,1.53,1.53,0,0,1-1-1.12,3.23,3.23,0,0,1,0-1.16l.86-5.85.06-.4a2.07,2.07,0,0,1,1.57-2,1.39,1.39,0,0,1,1,.14,1.19,1.19,0,0,1,.62.78,3.94,3.94,0,0,1,0,1.37Zm-1-11.76a1.84,1.84,0,0,1,2.26,1.34v0A1.88,1.88,0,0,1,67.39,125a1.86,1.86,0,0,1-1.42-.22,1.75,1.75,0,0,1-.84-1.16,1.79,1.79,0,0,1,.21-1.41,1.82,1.82,0,0,1,1.11-.87Z"/><path class="cls-8" d="M66,138.35a4.69,4.69,0,0,1-1.66-.3,3.58,3.58,0,0,1-2.18-2.51,4.87,4.87,0,0,1,0-1.94l.91-6.22a4.87,4.87,0,0,1,.7-1.95,4,4,0,0,1-.63-1.38A3.88,3.88,0,0,1,66,119.36h0a3.88,3.88,0,0,1,4.25,5.78l-.23.34a3.61,3.61,0,0,1,.24.65,5.56,5.56,0,0,1,0,2.15l-.34,2.32a3.41,3.41,0,0,1,1.14.23A3,3,0,0,1,72.9,133a3.53,3.53,0,0,1-.66,3.13,4.76,4.76,0,0,1-2.61,1.53l-2.08.51A6.54,6.54,0,0,1,66,138.35ZM66.87,123h0a.07.07,0,0,0-.07.07.17.17,0,0,0,0,.1l.07.07H67l.08-.07a.17.17,0,0,0,0-.1A.13.13,0,0,0,67,123Z"/><path class="cls-8" d="M88.08,122.11l1.18-.9c.91-.68,1.6-.7,2.08-.07a1.52,1.52,0,0,1,.29,1.39,2.74,2.74,0,0,1-1.06,1.38l-1.37,1a1.61,1.61,0,0,1-1.81.23,3,3,0,0,1-1,1.9l-1.23.92a3,3,0,0,1-2.55.6,4.18,4.18,0,0,1-2.39-1.66,6.83,6.83,0,0,1-1.37-4.77,5.3,5.3,0,0,1,2-4.07,2.82,2.82,0,0,1,2.74-.56,2,2,0,0,1,.8-1.87,1.34,1.34,0,0,1,1-.3,1.26,1.26,0,0,1,.88.51,2.59,2.59,0,0,1,.37.85l.1.38Zm-3.86,3,.27-.2a1.45,1.45,0,0,0,.62-1.61l-.65-2.43a2.15,2.15,0,0,0-.31-.73.78.78,0,0,0-.67-.29,1.35,1.35,0,0,0-.84.3,2.56,2.56,0,0,0-.84,2.07,3.75,3.75,0,0,0,.69,2.46C83,125.42,83.62,125.56,84.22,125.11Z"/><path class="cls-8" d="M83.27,130.68a5,5,0,0,1-1.09-.12,6,6,0,0,1-3.57-2.41A8.87,8.87,0,0,1,76.84,122a7.19,7.19,0,0,1,2.79-5.52A5.2,5.2,0,0,1,82,115.44a3.94,3.94,0,0,1,1.16-1.37,3.37,3.37,0,0,1,2.45-.69,3.21,3.21,0,0,1,2.26,1.29,4.38,4.38,0,0,1,.71,1.55l.72,2.69a3,3,0,0,1,3.64,1,3.54,3.54,0,0,1,.62,3.13,4.62,4.62,0,0,1-1.78,2.45l-1.37,1a4,4,0,0,1-1.66.76,4.37,4.37,0,0,1-1.16,1.37l-1.23.92A5,5,0,0,1,83.27,130.68Z"/><path class="cls-8" d="M95.85,116.39l4.93,7.94a2.35,2.35,0,0,1,.19,2.77,1.34,1.34,0,0,1-.83.54,1.15,1.15,0,0,1-.92-.19,4.17,4.17,0,0,1-.83-1l-9.11-14.69a1.75,1.75,0,0,1,0-2.11,1.52,1.52,0,0,1,1.45-.61,3.1,3.1,0,0,1,.55-2.45,2.83,2.83,0,0,1,2.22-1.22,4.38,4.38,0,0,1,2.79,1,7.31,7.31,0,0,1,3.15,4.85,3.62,3.62,0,0,1,0,1.67,6.08,6.08,0,0,1-1,1.77,6.6,6.6,0,0,1-1.27,1.42A2.88,2.88,0,0,1,95.85,116.39Zm-1.57-2.52a1.44,1.44,0,0,0,1.71-.74,1.74,1.74,0,0,0,.3-1.63,4.8,4.8,0,0,0-1.75-2.63,1.13,1.13,0,0,0-1.61,0,1,1,0,0,0-.18.23,2.06,2.06,0,0,0,.13,2.51,2.33,2.33,0,0,0,.17.26Z"/><path class="cls-8" d="M99.89,129.67a3.17,3.17,0,0,1-1.85-.6,5.6,5.6,0,0,1-1.34-1.57l-9.13-14.7a3.76,3.76,0,0,1,.12-4.35,3.47,3.47,0,0,1,1.09-1,5.32,5.32,0,0,1,.91-2.08,4.79,4.79,0,0,1,3.73-2,6.28,6.28,0,0,1,4.08,1.34,9.33,9.33,0,0,1,4,6.15,5.73,5.73,0,0,1-.11,2.57,7.81,7.81,0,0,1-1.27,2.38,11.57,11.57,0,0,1-1.28,1.52l3.69,6c1.51,2.43.72,4.18.11,5a3.31,3.31,0,0,1-2.07,1.32A3.87,3.87,0,0,1,99.89,129.67Z"/><path class="cls-8" d="M103.36,103.55l6.81,6.39a2.33,2.33,0,0,1,.91,2.63,1.37,1.37,0,0,1-.66.74,1.18,1.18,0,0,1-.94,0,4.23,4.23,0,0,1-1.06-.77L95.8,100.72a1.77,1.77,0,0,1-.51-2,1.51,1.51,0,0,1,1.24-1,3.06,3.06,0,0,1-.1-2.51,2.81,2.81,0,0,1,1.82-1.75,4.37,4.37,0,0,1,3,.2,7.39,7.39,0,0,1,4.3,3.87,3.65,3.65,0,0,1,.38,1.63,6.28,6.28,0,0,1-.47,2,6.48,6.48,0,0,1-.86,1.7A2.59,2.59,0,0,1,103.36,103.55Zm-2.17-2a1.45,1.45,0,0,0,1.46-1.16,1.79,1.79,0,0,0-.13-1.65,4.9,4.9,0,0,0-2.38-2.09,1.14,1.14,0,0,0-1.56.42,1.09,1.09,0,0,0-.11.27,2.06,2.06,0,0,0,.77,2.39l.24.21Z"/><path class="cls-8" d="M109.88,115.44a3.09,3.09,0,0,1-1.12-.21,5.55,5.55,0,0,1-1.7-1.17L94.43,102.29a3.77,3.77,0,0,1-1-4.24,3.42,3.42,0,0,1,.79-1.23,5.34,5.34,0,0,1,.34-2.24,4.79,4.79,0,0,1,3.08-2.94,6.28,6.28,0,0,1,4.29.24,9.35,9.35,0,0,1,5.41,4.91,5.72,5.72,0,0,1,.56,2.51,8,8,0,0,1-.61,2.63,10.2,10.2,0,0,1-.85,1.8l5.12,4.8c2.08,2,1.77,3.85,1.4,4.81a3.31,3.31,0,0,1-3.07,2.15Z"/><path class="cls-8" d="M105.51,89l.24-1.4c.2-1.12.7-1.61,1.48-1.47a1.5,1.5,0,0,1,1.16.81,2.81,2.81,0,0,1,.16,1.74l-.43,2.39a2.45,2.45,0,0,1-.74,1.47,1.52,1.52,0,0,1-1.34.34,4.1,4.1,0,0,1-1.3-.62L92.49,84.55l-.33-.2A2.09,2.09,0,0,1,91,82.13a1.35,1.35,0,0,1,.54-.88,1.17,1.17,0,0,1,1-.24,2.76,2.76,0,0,1,.87.36l.33.21Z"/><path class="cls-8" d="M106.36,94.92a3.79,3.79,0,0,1-.67-.06,6,6,0,0,1-2-.9L91.11,86a4.09,4.09,0,0,1-2-4.26,3.42,3.42,0,0,1,1.33-2.15,3.19,3.19,0,0,1,2.5-.59,4.65,4.65,0,0,1,1.57.62l9.8,6.17a3,3,0,0,1,3.34-1.68A3.53,3.53,0,0,1,110.24,86a4.63,4.63,0,0,1,.35,3l-.42,2.39a4.42,4.42,0,0,1-1.4,2.63A3.54,3.54,0,0,1,106.36,94.92Z"/><path class="cls-8" d="M105.22,80.57c.67,0,1-.5,1-1.52v-4c0-1.13.41-1.7,1.21-1.69a1.51,1.51,0,0,1,1.27.61,2.56,2.56,0,0,1,.45,1.68v3.81a4.56,4.56,0,0,1-1.08,3.24A4,4,0,0,1,105,83.79,6.39,6.39,0,0,1,100.51,82a5.54,5.54,0,0,1-1.86-4.2,4.23,4.23,0,0,1,1-2.83,3,3,0,0,1,2.44-1,2.86,2.86,0,0,1,2.68,1.5,4.93,4.93,0,0,1,.49,2.45Zm-2.45-.66V78.42c0-1-.2-1.43-.63-1.4s-.71.33-.72.92a2.19,2.19,0,0,0,1.37,2Z"/><path class="cls-8" d="M105.09,85.8H105a8.36,8.36,0,0,1-5.84-2.34,7.47,7.47,0,0,1-2.49-5.67,6.13,6.13,0,0,1,1.43-4.14,5,5,0,0,1,4-1.74,5.23,5.23,0,0,1,2.8.79l.06-.09a3,3,0,0,1,2.52-1.26h0a3.55,3.55,0,0,1,2.87,1.41,4.75,4.75,0,0,1,.85,2.9v3.82a6.51,6.51,0,0,1-1.63,4.61A6,6,0,0,1,105.09,85.8Z"/><path class="cls-1" d="M39.41,129.38,36,127.92l-7.12,5.39q-5,3.81-9,2.15A5.92,5.92,0,0,1,16.48,132a6.61,6.61,0,0,1,.18-5,7.93,7.93,0,0,1,3-3.53,11.05,11.05,0,0,1,4.86-1.78,12.8,12.8,0,0,1,4.23.22,31.75,31.75,0,0,1,5.52,1.87l.91.39,1.75-1.39a11.52,11.52,0,0,1,7.12-2.91,14.14,14.14,0,0,1,5.31,1.29,2.17,2.17,0,0,1,1.08.86,1.25,1.25,0,0,1,0,1.16,2.33,2.33,0,0,1-.43.61l-.24.24-4.39,4.45.95.4.32.14c.93.39,1.22,1,.88,1.79a1.74,1.74,0,0,1-1.1,1,2.16,2.16,0,0,1-1.6-.07l-.34-.14-1.57-.66-2.8,2.81,2,.86.32.13c.93.39,1.23,1,.89,1.78a1.74,1.74,0,0,1-1.1,1,2.24,2.24,0,0,1-1.61-.07l-.33-.14-2.66-1.12a3,3,0,0,1-1.52-1.29,1.93,1.93,0,0,1-.07-1.72,6.2,6.2,0,0,1,1.33-1.72Zm-7.21-3-1-.45a11.35,11.35,0,0,0-6.2-1.06,7.17,7.17,0,0,0-3,1.22,5.21,5.21,0,0,0-1.87,2.23,3.16,3.16,0,0,0-.09,2.34,2.59,2.59,0,0,0,1.49,1.61c1.25.53,2.7.16,4.36-1.09Zm9.68.58,3.64-3.66a4,4,0,0,0-2.57-.09,11.4,11.4,0,0,0-3.2,1.86l-.87.63Z"/><path class="cls-1" d="M52.8,136.78l-3.38,8.71c-.46,1.2-1.16,1.81-2.1,1.82a1.32,1.32,0,0,1-.93-.34,1.13,1.13,0,0,1-.4-.85,4.23,4.23,0,0,1,.32-1.27l6.25-16.12a1.75,1.75,0,0,1,1.7-1.24,1.52,1.52,0,0,1,1.36.79,3,3,0,0,1,2.29-1,2.78,2.78,0,0,1,2.3,1,4.32,4.32,0,0,1,.92,2.81,7.4,7.4,0,0,1-2,5.44,3.8,3.8,0,0,1-1.37,1,6.17,6.17,0,0,1-2,.29,6.38,6.38,0,0,1-1.9-.16A2.74,2.74,0,0,1,52.8,136.78ZM53.87,134a2.16,2.16,0,0,0,.65.76,2,2,0,0,0,1,.16,1.79,1.79,0,0,0,1.48-.74,5,5,0,0,0,1-3q0-1.32-1.26-1.29a2,2,0,0,0-1.93,1.61.89.89,0,0,1-.11.3Z"/><path class="cls-1" d="M67.5,133.07l1.48-.36c1.1-.27,1.74,0,1.93.76a1.54,1.54,0,0,1-.27,1.39,2.77,2.77,0,0,1-1.53.84l-2.08.51a3.18,3.18,0,0,1-1.93,0,1.53,1.53,0,0,1-1-1.12,3.23,3.23,0,0,1,0-1.16l.86-5.85.06-.4a2.07,2.07,0,0,1,1.57-2,1.39,1.39,0,0,1,1,.14,1.19,1.19,0,0,1,.62.78,3.94,3.94,0,0,1,0,1.37Zm-1-11.76a1.84,1.84,0,0,1,2.26,1.34v0A1.88,1.88,0,0,1,67.39,125a1.86,1.86,0,0,1-1.42-.22,1.75,1.75,0,0,1-.84-1.16,1.79,1.79,0,0,1,.21-1.41,1.82,1.82,0,0,1,1.11-.87Z"/><path class="cls-1" d="M88.08,122.11l1.18-.9c.91-.68,1.6-.7,2.08-.07a1.52,1.52,0,0,1,.29,1.39,2.74,2.74,0,0,1-1.06,1.38l-1.37,1a1.61,1.61,0,0,1-1.81.23,3,3,0,0,1-1,1.9l-1.23.92a3,3,0,0,1-2.55.6,4.18,4.18,0,0,1-2.39-1.66,6.83,6.83,0,0,1-1.37-4.77,5.3,5.3,0,0,1,2-4.07,2.82,2.82,0,0,1,2.74-.56,2,2,0,0,1,.8-1.87,1.34,1.34,0,0,1,1-.3,1.26,1.26,0,0,1,.88.51,2.59,2.59,0,0,1,.37.85l.1.38Zm-3.86,3,.27-.2a1.45,1.45,0,0,0,.62-1.61l-.65-2.43a2.15,2.15,0,0,0-.31-.73.78.78,0,0,0-.67-.29,1.35,1.35,0,0,0-.84.3,2.56,2.56,0,0,0-.84,2.07,3.75,3.75,0,0,0,.69,2.46C83,125.42,83.62,125.56,84.22,125.11Z"/><path class="cls-1" d="M95.85,116.39l4.93,7.94a2.35,2.35,0,0,1,.19,2.77,1.34,1.34,0,0,1-.83.54,1.15,1.15,0,0,1-.92-.19,4.17,4.17,0,0,1-.83-1l-9.11-14.69a1.75,1.75,0,0,1,0-2.11,1.52,1.52,0,0,1,1.45-.61,3.1,3.1,0,0,1,.55-2.45,2.83,2.83,0,0,1,2.22-1.22,4.38,4.38,0,0,1,2.79,1,7.31,7.31,0,0,1,3.15,4.85,3.62,3.62,0,0,1,0,1.67,6.08,6.08,0,0,1-1,1.77,6.6,6.6,0,0,1-1.27,1.42A2.88,2.88,0,0,1,95.85,116.39Zm-1.57-2.52a1.44,1.44,0,0,0,1.71-.74,1.74,1.74,0,0,0,.3-1.63,4.8,4.8,0,0,0-1.75-2.63,1.13,1.13,0,0,0-1.61,0,1,1,0,0,0-.18.23,2.06,2.06,0,0,0,.13,2.51,2.33,2.33,0,0,0,.17.26Z"/><path class="cls-1" d="M103.36,103.55l6.81,6.39a2.33,2.33,0,0,1,.91,2.63,1.37,1.37,0,0,1-.66.74,1.18,1.18,0,0,1-.94,0,4.23,4.23,0,0,1-1.06-.77L95.8,100.72a1.77,1.77,0,0,1-.51-2,1.51,1.51,0,0,1,1.24-1,3.06,3.06,0,0,1-.1-2.51,2.81,2.81,0,0,1,1.82-1.75,4.37,4.37,0,0,1,3,.2,7.39,7.39,0,0,1,4.3,3.87,3.65,3.65,0,0,1,.38,1.63,6.28,6.28,0,0,1-.47,2,6.48,6.48,0,0,1-.86,1.7A2.59,2.59,0,0,1,103.36,103.55Zm-2.17-2a1.45,1.45,0,0,0,1.46-1.16,1.79,1.79,0,0,0-.13-1.65,4.9,4.9,0,0,0-2.38-2.09,1.14,1.14,0,0,0-1.56.42,1.09,1.09,0,0,0-.11.27,2.06,2.06,0,0,0,.77,2.39l.24.21Z"/><path class="cls-1" d="M105.51,89l.24-1.4c.2-1.12.7-1.61,1.48-1.47a1.5,1.5,0,0,1,1.16.81,2.81,2.81,0,0,1,.16,1.74l-.43,2.39a2.45,2.45,0,0,1-.74,1.47,1.52,1.52,0,0,1-1.34.34,4.1,4.1,0,0,1-1.3-.62L92.49,84.55l-.33-.2A2.09,2.09,0,0,1,91,82.13a1.35,1.35,0,0,1,.54-.88,1.17,1.17,0,0,1,1-.24,2.76,2.76,0,0,1,.87.36l.33.21Z"/><path class="cls-1" d="M105.22,80.57c.67,0,1-.5,1-1.52v-4c0-1.13.41-1.7,1.21-1.69a1.51,1.51,0,0,1,1.27.61,2.56,2.56,0,0,1,.45,1.68v3.81a4.56,4.56,0,0,1-1.08,3.24A4,4,0,0,1,105,83.79,6.39,6.39,0,0,1,100.51,82a5.54,5.54,0,0,1-1.86-4.2,4.23,4.23,0,0,1,1-2.83,3,3,0,0,1,2.44-1,2.86,2.86,0,0,1,2.68,1.5,4.93,4.93,0,0,1,.49,2.45Zm-2.45-.66V78.42c0-1-.2-1.43-.63-1.4s-.71.33-.72.92a2.19,2.19,0,0,0,1.37,2Z"/><path class="cls-8" d="M39.41,129.38,36,127.92l-7.12,5.39q-5,3.81-9,2.15A5.92,5.92,0,0,1,16.48,132a6.61,6.61,0,0,1,.18-5,7.93,7.93,0,0,1,3-3.53,11.05,11.05,0,0,1,4.86-1.78,12.8,12.8,0,0,1,4.23.22,31.75,31.75,0,0,1,5.52,1.87l.91.39,1.75-1.39a11.52,11.52,0,0,1,7.12-2.91,14.14,14.14,0,0,1,5.31,1.29,2.17,2.17,0,0,1,1.08.86,1.25,1.25,0,0,1,0,1.16,2.33,2.33,0,0,1-.43.61l-.24.24-4.39,4.45.95.4.32.14c.93.39,1.22,1,.88,1.79a1.74,1.74,0,0,1-1.1,1,2.16,2.16,0,0,1-1.6-.07l-.34-.14-1.57-.66-2.8,2.81,2,.86.32.13c.93.39,1.23,1,.89,1.78a1.74,1.74,0,0,1-1.1,1,2.24,2.24,0,0,1-1.61-.07l-.33-.14-2.66-1.12a3,3,0,0,1-1.52-1.29,1.93,1.93,0,0,1-.07-1.72,6.2,6.2,0,0,1,1.33-1.72Zm-7.21-3-1-.45a11.35,11.35,0,0,0-6.2-1.06,7.17,7.17,0,0,0-3,1.22,5.21,5.21,0,0,0-1.87,2.23,3.16,3.16,0,0,0-.09,2.34,2.59,2.59,0,0,0,1.49,1.61c1.25.53,2.7.16,4.36-1.09Zm9.68.58,3.64-3.66a4,4,0,0,0-2.57-.09,11.4,11.4,0,0,0-3.2,1.86l-.87.63Z"/><path class="cls-8" d="M41.56,139.59a4.44,4.44,0,0,1-1.69-.35l-3-1.26a4.91,4.91,0,0,1-2.51-2.2,3.92,3.92,0,0,1-.15-3.44,4.82,4.82,0,0,1,.6-1l-4.76,3.6c-3.95,3-7.66,3.81-11,2.4a7.87,7.87,0,0,1-4.47-4.64,8.59,8.59,0,0,1,.21-6.53,10,10,0,0,1,3.72-4.42,13.14,13.14,0,0,1,5.72-2.1,14.73,14.73,0,0,1,4.91.25,32.91,32.91,0,0,1,5.7,1.91l.81-.65A13.52,13.52,0,0,1,44,117.81h0a15.76,15.76,0,0,1,6.07,1.45,4.07,4.07,0,0,1,2,1.73,3.3,3.3,0,0,1,.14,2.92,4.14,4.14,0,0,1-.84,1.23l-.24.24-2.51,2.55a3.11,3.11,0,0,1,.68,3.61A3.75,3.75,0,0,1,47,133.66a4.12,4.12,0,0,1-2.48.08,3,3,0,0,1,.57,3.51,3.73,3.73,0,0,1-2.29,2.14A4.48,4.48,0,0,1,41.56,139.59ZM26.22,126.74a4.65,4.65,0,0,0-.91.07,5.13,5.13,0,0,0-2.18.88A3.27,3.27,0,0,0,22,129.06a1.15,1.15,0,0,0,0,.89.59.59,0,0,0,.37.43c.67.28,1.66-.3,2.37-.84L28.1,127A8,8,0,0,0,26.22,126.74Z"/><path class="cls-8" d="M52.8,136.78l-3.38,8.71c-.46,1.2-1.16,1.81-2.1,1.82a1.32,1.32,0,0,1-.93-.34,1.13,1.13,0,0,1-.4-.85,4.23,4.23,0,0,1,.32-1.27l6.25-16.12a1.75,1.75,0,0,1,1.7-1.24,1.52,1.52,0,0,1,1.36.79,3,3,0,0,1,2.29-1,2.78,2.78,0,0,1,2.3,1,4.32,4.32,0,0,1,.92,2.81,7.4,7.4,0,0,1-2,5.44,3.8,3.8,0,0,1-1.37,1,6.17,6.17,0,0,1-2,.29,6.38,6.38,0,0,1-1.9-.16A2.74,2.74,0,0,1,52.8,136.78ZM53.87,134a2.16,2.16,0,0,0,.65.76,2,2,0,0,0,1,.16,1.79,1.79,0,0,0,1.48-.74,5,5,0,0,0,1-3q0-1.32-1.26-1.29a2,2,0,0,0-1.93,1.61.89.89,0,0,1-.11.3Z"/><path class="cls-8" d="M47.29,149.29a3.3,3.3,0,0,1-2.24-.86A3.12,3.12,0,0,1,44,146.12a5.3,5.3,0,0,1,.45-2L50.69,128a3.74,3.74,0,0,1,3.54-2.52,3.27,3.27,0,0,1,1.44.27,5,5,0,0,1,2.21-.52A4.74,4.74,0,0,1,61.75,127,6.31,6.31,0,0,1,63.13,131a9.33,9.33,0,0,1-2.53,6.86,5.74,5.74,0,0,1-2.12,1.45,8,8,0,0,1-2.66.42,11.14,11.14,0,0,1-2-.12l-2.54,6.54a4.21,4.21,0,0,1-3.94,3.11Z"/><path class="cls-8" d="M67.5,133.07l1.48-.36c1.1-.27,1.74,0,1.93.76a1.54,1.54,0,0,1-.27,1.39,2.77,2.77,0,0,1-1.53.84l-2.08.51a3.18,3.18,0,0,1-1.93,0,1.53,1.53,0,0,1-1-1.12,3.23,3.23,0,0,1,0-1.16l.86-5.85.06-.4a2.07,2.07,0,0,1,1.57-2,1.39,1.39,0,0,1,1,.14,1.19,1.19,0,0,1,.62.78,3.94,3.94,0,0,1,0,1.37Zm-1-11.76a1.84,1.84,0,0,1,2.26,1.34v0A1.88,1.88,0,0,1,67.39,125a1.86,1.86,0,0,1-1.42-.22,1.75,1.75,0,0,1-.84-1.16,1.79,1.79,0,0,1,.21-1.41,1.82,1.82,0,0,1,1.11-.87Z"/><path class="cls-8" d="M66,138.35a4.69,4.69,0,0,1-1.66-.3,3.58,3.58,0,0,1-2.18-2.51,4.87,4.87,0,0,1,0-1.94l.91-6.22a4.87,4.87,0,0,1,.7-1.95,4,4,0,0,1-.63-1.38A3.88,3.88,0,0,1,66,119.36h0a3.88,3.88,0,0,1,4.25,5.78l-.23.34a3.61,3.61,0,0,1,.24.65,5.56,5.56,0,0,1,0,2.15l-.34,2.32a3.41,3.41,0,0,1,1.14.23A3,3,0,0,1,72.9,133a3.53,3.53,0,0,1-.66,3.13,4.76,4.76,0,0,1-2.61,1.53l-2.08.51A6.54,6.54,0,0,1,66,138.35ZM66.87,123h0a.07.07,0,0,0-.07.07.17.17,0,0,0,0,.1l.07.07H67l.08-.07a.17.17,0,0,0,0-.1A.13.13,0,0,0,67,123Z"/><path class="cls-8" d="M88.08,122.11l1.18-.9c.91-.68,1.6-.7,2.08-.07a1.52,1.52,0,0,1,.29,1.39,2.74,2.74,0,0,1-1.06,1.38l-1.37,1a1.61,1.61,0,0,1-1.81.23,3,3,0,0,1-1,1.9l-1.23.92a3,3,0,0,1-2.55.6,4.18,4.18,0,0,1-2.39-1.66,6.83,6.83,0,0,1-1.37-4.77,5.3,5.3,0,0,1,2-4.07,2.82,2.82,0,0,1,2.74-.56,2,2,0,0,1,.8-1.87,1.34,1.34,0,0,1,1-.3,1.26,1.26,0,0,1,.88.51,2.59,2.59,0,0,1,.37.85l.1.38Zm-3.86,3,.27-.2a1.45,1.45,0,0,0,.62-1.61l-.65-2.43a2.15,2.15,0,0,0-.31-.73.78.78,0,0,0-.67-.29,1.35,1.35,0,0,0-.84.3,2.56,2.56,0,0,0-.84,2.07,3.75,3.75,0,0,0,.69,2.46C83,125.42,83.62,125.56,84.22,125.11Z"/><path class="cls-8" d="M83.27,130.68a5,5,0,0,1-1.09-.12,6,6,0,0,1-3.57-2.41A8.87,8.87,0,0,1,76.84,122a7.19,7.19,0,0,1,2.79-5.52A5.2,5.2,0,0,1,82,115.44a3.94,3.94,0,0,1,1.16-1.37,3.37,3.37,0,0,1,2.45-.69,3.21,3.21,0,0,1,2.26,1.29,4.38,4.38,0,0,1,.71,1.55l.72,2.69a3,3,0,0,1,3.64,1,3.54,3.54,0,0,1,.62,3.13,4.62,4.62,0,0,1-1.78,2.45l-1.37,1a4,4,0,0,1-1.66.76,4.37,4.37,0,0,1-1.16,1.37l-1.23.92A5,5,0,0,1,83.27,130.68Z"/><path class="cls-8" d="M95.85,116.39l4.93,7.94a2.35,2.35,0,0,1,.19,2.77,1.34,1.34,0,0,1-.83.54,1.15,1.15,0,0,1-.92-.19,4.17,4.17,0,0,1-.83-1l-9.11-14.69a1.75,1.75,0,0,1,0-2.11,1.52,1.52,0,0,1,1.45-.61,3.1,3.1,0,0,1,.55-2.45,2.83,2.83,0,0,1,2.22-1.22,4.38,4.38,0,0,1,2.79,1,7.31,7.31,0,0,1,3.15,4.85,3.62,3.62,0,0,1,0,1.67,6.08,6.08,0,0,1-1,1.77,6.6,6.6,0,0,1-1.27,1.42A2.88,2.88,0,0,1,95.85,116.39Zm-1.57-2.52a1.44,1.44,0,0,0,1.71-.74,1.74,1.74,0,0,0,.3-1.63,4.8,4.8,0,0,0-1.75-2.63,1.13,1.13,0,0,0-1.61,0,1,1,0,0,0-.18.23,2.06,2.06,0,0,0,.13,2.51,2.33,2.33,0,0,0,.17.26Z"/><path class="cls-8" d="M99.89,129.67a3.17,3.17,0,0,1-1.85-.6,5.6,5.6,0,0,1-1.34-1.57l-9.13-14.7a3.76,3.76,0,0,1,.12-4.35,3.47,3.47,0,0,1,1.09-1,5.32,5.32,0,0,1,.91-2.08,4.79,4.79,0,0,1,3.73-2,6.28,6.28,0,0,1,4.08,1.34,9.33,9.33,0,0,1,4,6.15,5.73,5.73,0,0,1-.11,2.57,7.81,7.81,0,0,1-1.27,2.38,11.57,11.57,0,0,1-1.28,1.52l3.69,6c1.51,2.43.72,4.18.11,5a3.31,3.31,0,0,1-2.07,1.32A3.87,3.87,0,0,1,99.89,129.67Z"/><path class="cls-8" d="M103.36,103.55l6.81,6.39a2.33,2.33,0,0,1,.91,2.63,1.37,1.37,0,0,1-.66.74,1.18,1.18,0,0,1-.94,0,4.23,4.23,0,0,1-1.06-.77L95.8,100.72a1.77,1.77,0,0,1-.51-2,1.51,1.51,0,0,1,1.24-1,3.06,3.06,0,0,1-.1-2.51,2.81,2.81,0,0,1,1.82-1.75,4.37,4.37,0,0,1,3,.2,7.39,7.39,0,0,1,4.3,3.87,3.65,3.65,0,0,1,.38,1.63,6.28,6.28,0,0,1-.47,2,6.48,6.48,0,0,1-.86,1.7A2.59,2.59,0,0,1,103.36,103.55Zm-2.17-2a1.45,1.45,0,0,0,1.46-1.16,1.79,1.79,0,0,0-.13-1.65,4.9,4.9,0,0,0-2.38-2.09,1.14,1.14,0,0,0-1.56.42,1.09,1.09,0,0,0-.11.27,2.06,2.06,0,0,0,.77,2.39l.24.21Z"/><path class="cls-8" d="M109.88,115.44a3.09,3.09,0,0,1-1.12-.21,5.55,5.55,0,0,1-1.7-1.17L94.43,102.29a3.77,3.77,0,0,1-1-4.24,3.42,3.42,0,0,1,.79-1.23,5.34,5.34,0,0,1,.34-2.24,4.79,4.79,0,0,1,3.08-2.94,6.28,6.28,0,0,1,4.29.24,9.35,9.35,0,0,1,5.41,4.91,5.72,5.72,0,0,1,.56,2.51,8,8,0,0,1-.61,2.63,10.2,10.2,0,0,1-.85,1.8l5.12,4.8c2.08,2,1.77,3.85,1.4,4.81a3.31,3.31,0,0,1-3.07,2.15Z"/><path class="cls-8" d="M105.51,89l.24-1.4c.2-1.12.7-1.61,1.48-1.47a1.5,1.5,0,0,1,1.16.81,2.81,2.81,0,0,1,.16,1.74l-.43,2.39a2.45,2.45,0,0,1-.74,1.47,1.52,1.52,0,0,1-1.34.34,4.1,4.1,0,0,1-1.3-.62L92.49,84.55l-.33-.2A2.09,2.09,0,0,1,91,82.13a1.35,1.35,0,0,1,.54-.88,1.17,1.17,0,0,1,1-.24,2.76,2.76,0,0,1,.87.36l.33.21Z"/><path class="cls-8" d="M106.36,94.92a3.79,3.79,0,0,1-.67-.06,6,6,0,0,1-2-.9L91.11,86a4.09,4.09,0,0,1-2-4.26,3.42,3.42,0,0,1,1.33-2.15,3.19,3.19,0,0,1,2.5-.59,4.65,4.65,0,0,1,1.57.62l9.8,6.17a3,3,0,0,1,3.34-1.68A3.53,3.53,0,0,1,110.24,86a4.63,4.63,0,0,1,.35,3l-.42,2.39a4.42,4.42,0,0,1-1.4,2.63A3.54,3.54,0,0,1,106.36,94.92Z"/><path class="cls-8" d="M105.22,80.57c.67,0,1-.5,1-1.52v-4c0-1.13.41-1.7,1.21-1.69a1.51,1.51,0,0,1,1.27.61,2.56,2.56,0,0,1,.45,1.68v3.81a4.56,4.56,0,0,1-1.08,3.24A4,4,0,0,1,105,83.79,6.39,6.39,0,0,1,100.51,82a5.54,5.54,0,0,1-1.86-4.2,4.23,4.23,0,0,1,1-2.83,3,3,0,0,1,2.44-1,2.86,2.86,0,0,1,2.68,1.5,4.93,4.93,0,0,1,.49,2.45Zm-2.45-.66V78.42c0-1-.2-1.43-.63-1.4s-.71.33-.72.92a2.19,2.19,0,0,0,1.37,2Z"/><path class="cls-8" d="M105.09,85.8H105a8.36,8.36,0,0,1-5.84-2.34,7.47,7.47,0,0,1-2.49-5.67,6.13,6.13,0,0,1,1.43-4.14,5,5,0,0,1,4-1.74,5.23,5.23,0,0,1,2.8.79l.06-.09a3,3,0,0,1,2.52-1.26h0a3.55,3.55,0,0,1,2.87,1.41,4.75,4.75,0,0,1,.85,2.9v3.82a6.51,6.51,0,0,1-1.63,4.61A6,6,0,0,1,105.09,85.8Z"/><path class="cls-1" d="M39.41,129.38,36,127.92l-7.12,5.39q-5,3.81-9,2.15A5.92,5.92,0,0,1,16.48,132a6.61,6.61,0,0,1,.18-5,7.93,7.93,0,0,1,3-3.53,11.05,11.05,0,0,1,4.86-1.78,12.8,12.8,0,0,1,4.23.22,31.75,31.75,0,0,1,5.52,1.87l.91.39,1.75-1.39a11.52,11.52,0,0,1,7.12-2.91,14.14,14.14,0,0,1,5.31,1.29,2.17,2.17,0,0,1,1.08.86,1.25,1.25,0,0,1,0,1.16,2.33,2.33,0,0,1-.43.61l-.24.24-4.39,4.45.95.4.32.14c.93.39,1.22,1,.88,1.79a1.74,1.74,0,0,1-1.1,1,2.16,2.16,0,0,1-1.6-.07l-.34-.14-1.57-.66-2.8,2.81,2,.86.32.13c.93.39,1.23,1,.89,1.78a1.74,1.74,0,0,1-1.1,1,2.24,2.24,0,0,1-1.61-.07l-.33-.14-2.66-1.12a3,3,0,0,1-1.52-1.29,1.93,1.93,0,0,1-.07-1.72,6.2,6.2,0,0,1,1.33-1.72Zm-7.21-3-1-.45a11.35,11.35,0,0,0-6.2-1.06,7.17,7.17,0,0,0-3,1.22,5.21,5.21,0,0,0-1.87,2.23,3.16,3.16,0,0,0-.09,2.34,2.59,2.59,0,0,0,1.49,1.61c1.25.53,2.7.16,4.36-1.09Zm9.68.58,3.64-3.66a4,4,0,0,0-2.57-.09,11.4,11.4,0,0,0-3.2,1.86l-.87.63Z"/><path class="cls-1" d="M52.8,136.78l-3.38,8.71c-.46,1.2-1.16,1.81-2.1,1.82a1.32,1.32,0,0,1-.93-.34,1.13,1.13,0,0,1-.4-.85,4.23,4.23,0,0,1,.32-1.27l6.25-16.12a1.75,1.75,0,0,1,1.7-1.24,1.52,1.52,0,0,1,1.36.79,3,3,0,0,1,2.29-1,2.78,2.78,0,0,1,2.3,1,4.32,4.32,0,0,1,.92,2.81,7.4,7.4,0,0,1-2,5.44,3.8,3.8,0,0,1-1.37,1,6.17,6.17,0,0,1-2,.29,6.38,6.38,0,0,1-1.9-.16A2.74,2.74,0,0,1,52.8,136.78ZM53.87,134a2.16,2.16,0,0,0,.65.76,2,2,0,0,0,1,.16,1.79,1.79,0,0,0,1.48-.74,5,5,0,0,0,1-3q0-1.32-1.26-1.29a2,2,0,0,0-1.93,1.61.89.89,0,0,1-.11.3Z"/><path class="cls-1" d="M67.5,133.07l1.48-.36c1.1-.27,1.74,0,1.93.76a1.54,1.54,0,0,1-.27,1.39,2.77,2.77,0,0,1-1.53.84l-2.08.51a3.18,3.18,0,0,1-1.93,0,1.53,1.53,0,0,1-1-1.12,3.23,3.23,0,0,1,0-1.16l.86-5.85.06-.4a2.07,2.07,0,0,1,1.57-2,1.39,1.39,0,0,1,1,.14,1.19,1.19,0,0,1,.62.78,3.94,3.94,0,0,1,0,1.37Zm-1-11.76a1.84,1.84,0,0,1,2.26,1.34v0A1.88,1.88,0,0,1,67.39,125a1.86,1.86,0,0,1-1.42-.22,1.75,1.75,0,0,1-.84-1.16,1.79,1.79,0,0,1,.21-1.41,1.82,1.82,0,0,1,1.11-.87Z"/><path class="cls-1" d="M88.08,122.11l1.18-.9c.91-.68,1.6-.7,2.08-.07a1.52,1.52,0,0,1,.29,1.39,2.74,2.74,0,0,1-1.06,1.38l-1.37,1a1.61,1.61,0,0,1-1.81.23,3,3,0,0,1-1,1.9l-1.23.92a3,3,0,0,1-2.55.6,4.18,4.18,0,0,1-2.39-1.66,6.83,6.83,0,0,1-1.37-4.77,5.3,5.3,0,0,1,2-4.07,2.82,2.82,0,0,1,2.74-.56,2,2,0,0,1,.8-1.87,1.34,1.34,0,0,1,1-.3,1.26,1.26,0,0,1,.88.51,2.59,2.59,0,0,1,.37.85l.1.38Zm-3.86,3,.27-.2a1.45,1.45,0,0,0,.62-1.61l-.65-2.43a2.15,2.15,0,0,0-.31-.73.78.78,0,0,0-.67-.29,1.35,1.35,0,0,0-.84.3,2.56,2.56,0,0,0-.84,2.07,3.75,3.75,0,0,0,.69,2.46C83,125.42,83.62,125.56,84.22,125.11Z"/><path class="cls-1" d="M95.85,116.39l4.93,7.94a2.35,2.35,0,0,1,.19,2.77,1.34,1.34,0,0,1-.83.54,1.15,1.15,0,0,1-.92-.19,4.17,4.17,0,0,1-.83-1l-9.11-14.69a1.75,1.75,0,0,1,0-2.11,1.52,1.52,0,0,1,1.45-.61,3.1,3.1,0,0,1,.55-2.45,2.83,2.83,0,0,1,2.22-1.22,4.38,4.38,0,0,1,2.79,1,7.31,7.31,0,0,1,3.15,4.85,3.62,3.62,0,0,1,0,1.67,6.08,6.08,0,0,1-1,1.77,6.6,6.6,0,0,1-1.27,1.42A2.88,2.88,0,0,1,95.85,116.39Zm-1.57-2.52a1.44,1.44,0,0,0,1.71-.74,1.74,1.74,0,0,0,.3-1.63,4.8,4.8,0,0,0-1.75-2.63,1.13,1.13,0,0,0-1.61,0,1,1,0,0,0-.18.23,2.06,2.06,0,0,0,.13,2.51,2.33,2.33,0,0,0,.17.26Z"/><path class="cls-1" d="M103.36,103.55l6.81,6.39a2.33,2.33,0,0,1,.91,2.63,1.37,1.37,0,0,1-.66.74,1.18,1.18,0,0,1-.94,0,4.23,4.23,0,0,1-1.06-.77L95.8,100.72a1.77,1.77,0,0,1-.51-2,1.51,1.51,0,0,1,1.24-1,3.06,3.06,0,0,1-.1-2.51,2.81,2.81,0,0,1,1.82-1.75,4.37,4.37,0,0,1,3,.2,7.39,7.39,0,0,1,4.3,3.87,3.65,3.65,0,0,1,.38,1.63,6.28,6.28,0,0,1-.47,2,6.48,6.48,0,0,1-.86,1.7A2.59,2.59,0,0,1,103.36,103.55Zm-2.17-2a1.45,1.45,0,0,0,1.46-1.16,1.79,1.79,0,0,0-.13-1.65,4.9,4.9,0,0,0-2.38-2.09,1.14,1.14,0,0,0-1.56.42,1.09,1.09,0,0,0-.11.27,2.06,2.06,0,0,0,.77,2.39l.24.21Z"/><path class="cls-1" d="M105.51,89l.24-1.4c.2-1.12.7-1.61,1.48-1.47a1.5,1.5,0,0,1,1.16.81,2.81,2.81,0,0,1,.16,1.74l-.43,2.39a2.45,2.45,0,0,1-.74,1.47,1.52,1.52,0,0,1-1.34.34,4.1,4.1,0,0,1-1.3-.62L92.49,84.55l-.33-.2A2.09,2.09,0,0,1,91,82.13a1.35,1.35,0,0,1,.54-.88,1.17,1.17,0,0,1,1-.24,2.76,2.76,0,0,1,.87.36l.33.21Z"/><path class="cls-1" d="M105.22,80.57c.67,0,1-.5,1-1.52v-4c0-1.13.41-1.7,1.21-1.69a1.51,1.51,0,0,1,1.27.61,2.56,2.56,0,0,1,.45,1.68v3.81a4.56,4.56,0,0,1-1.08,3.24A4,4,0,0,1,105,83.79,6.39,6.39,0,0,1,100.51,82a5.54,5.54,0,0,1-1.86-4.2,4.23,4.23,0,0,1,1-2.83,3,3,0,0,1,2.44-1,2.86,2.86,0,0,1,2.68,1.5,4.93,4.93,0,0,1,.49,2.45Zm-2.45-.66V78.42c0-1-.2-1.43-.63-1.4s-.71.33-.72.92a2.19,2.19,0,0,0,1.37,2Z"/></g></svg>