<svg id="Calque_1" data-name="Calque 1" xmlns="http://www.w3.org/2000/svg" viewBox="0 0 765.45 296.45"><defs><style>.cls-1{fill:#29ffa3;}.cls-2{fill:#ffef27;}</style></defs><path class="cls-1" d="M702.2,253.72c-23.59-75.79-75.24-27.87,0,0"/><path class="cls-1" d="M530.76,257.92c19.49-76.94,73.64-31.86,0,0"/><path class="cls-1" d="M711.86,266.05c44.39,65.8,80.07,5,0,0"/><circle class="cls-2" cx="656.87" cy="113.59" r="19.56"/><path d="M484.47,223.67a3.74,3.74,0,0,1,4.56,0c69.68,53.55,157.05,62.8,212.22,42.64,28.27-10.33,45.17-27.39,47.58-48,1.61-13.75-3.19-28.67-14.27-44.32-12.5-17.67-32.68-35.76-60-53.77a3.8,3.8,0,0,1-1.51-4.53,3.72,3.72,0,0,1,5.52-1.75c28.12,18.54,49,37.3,62,55.74,12.18,17.21,17.42,33.86,15.59,49.49-1.4,12.05-7,23-16.47,32.49-9,8.95-21.07,16.25-36,21.69-31.81,11.62-73.46,13.31-114.28,4.62q-10.15-2.16-20-5.09a261.33,261.33,0,0,1-85-43.26,3.72,3.72,0,0,1,0-5.91Z"/><path d="M658.5,127.1A17.89,17.89,0,1,1,680.73,115,17.92,17.92,0,0,1,658.5,127.1Zm8-27.16a10.44,10.44,0,1,0,7,13A10.45,10.45,0,0,0,666.55,99.94Z"/><path d="M702.21,260.14l-4.9-4.35c-23.84-21.21-26.83-37.79-21.67-46.24,3.09-5.05,9-7,14.83-4.71,9.61,3.72,18.78,18.75,13,48.87Zm-15-48.53a4.33,4.33,0,0,0-5.24,1.82c-2.35,3.86-1.77,15.19,15.21,32,1.09-9,.66-16.9-1.3-23-1.76-5.47-4.72-9.37-8.13-10.69Q687.51,211.69,687.24,211.61Z"/><path d="M527.32,255.55a.38.38,0,0,1-.1,0h0a3.52,3.52,0,0,1-1.1-.58,3.71,3.71,0,0,1-1.11-1.36,3.5,3.5,0,0,1-.32-1.07,3.74,3.74,0,0,1,.67-2.72c8.9-12.28,18.4-21.4,27.46-26.34,8-4.36,15.42-5.45,20.93-3.06a10.68,10.68,0,0,1,6.48,12.17c-1.92,10-16.63,22.11-51.73,23.14A3.42,3.42,0,0,1,527.32,255.55ZM570,227c-5.91-1.75-18.7,2.6-33.73,20.84,24.77-2.22,35.49-10.84,36.6-16.63a3.25,3.25,0,0,0-2.12-3.94A7.31,7.31,0,0,0,570,227Z"/><path d="M738.85,289.73c-9.71-2.88-20.68-9.41-31.8-19a3.32,3.32,0,0,1-.38-.37,3.72,3.72,0,0,1-.92-2.13,3.86,3.86,0,0,1,0-1,3.72,3.72,0,0,1,.84-1.74,3.68,3.68,0,0,1,2.11-1.23c34.36-7.14,51.46,1.2,55.66,10.51a10.69,10.69,0,0,1-3.48,13.35c-4.81,3.6-12.29,4.27-21.06,1.88Zm-20.69-19.56c19.69,14.9,33.5,15.6,38.31,12a3.26,3.26,0,0,0,1.15-4.32C755.19,272.48,742.76,266.58,718.16,270.17Z"/><path d="M305.44,82.69h6.73v52.06h-6.73Z"/><path d="M330,83.64a4.78,4.78,0,0,1,1.3,3.4,10.24,10.24,0,0,1-.21,2.07,23.25,23.25,0,0,1-.92,2.91l-3.36,9.83h-4.42l2.59-10.46a4.44,4.44,0,0,1-2.14-1.65A4.58,4.58,0,0,1,322,87a4.66,4.66,0,0,1,1.34-3.44,4.55,4.55,0,0,1,3.36-1.33A4.34,4.34,0,0,1,330,83.64Z"/><path d="M365.6,101q4.11,3.8,4.1,11.3v22.45h-6.38v-4.91a10.63,10.63,0,0,1-4.81,4,18.2,18.2,0,0,1-7.4,1.37q-6.24,0-10-3a10.38,10.38,0,0,1-.17-15.83q3.57-3,11.36-3H363V112a8.59,8.59,0,0,0-2.53-6.67Q357.92,103,353,103a19.61,19.61,0,0,0-6.46,1.09,16.5,16.5,0,0,0-5.33,2.91L338.41,102a20.29,20.29,0,0,1,6.88-3.55,28.67,28.67,0,0,1,8.49-1.23Q361.49,97.21,365.6,101Zm-6.7,27.26a9.81,9.81,0,0,0,4.07-4.87v-5.2H352.58q-8.55,0-8.56,5.76a5.22,5.22,0,0,0,2.18,4.42,10,10,0,0,0,6,1.61A12.47,12.47,0,0,0,358.9,128.26Z"/><path d="M403.1,132.58a10.16,10.16,0,0,1-3.65,1.93,15.34,15.34,0,0,1-4.49.66q-5.61,0-8.7-3c-2.06-2-3.08-4.89-3.08-8.63V103.11h-6.32V97.57h6.32V89.43h6.73v8.14h10.67v5.54H389.91v20.13a6.53,6.53,0,0,0,1.51,4.64,5.62,5.62,0,0,0,4.31,1.61,8.13,8.13,0,0,0,5.27-1.75Z"/><path d="M443.44,118.4H413.27a11.71,11.71,0,0,0,4.32,7.9,14.09,14.09,0,0,0,9.16,3,13.8,13.8,0,0,0,10.73-4.49l3.72,4.35a16.34,16.34,0,0,1-6.28,4.49,23.71,23.71,0,0,1-18.84-.88A17.24,17.24,0,0,1,409,126a19.4,19.4,0,0,1-2.49-9.82,19.75,19.75,0,0,1,2.42-9.75,17.23,17.23,0,0,1,6.67-6.77,18.89,18.89,0,0,1,9.57-2.43,18.54,18.54,0,0,1,9.51,2.43,16.94,16.94,0,0,1,6.52,6.77,20.59,20.59,0,0,1,2.36,10A18,18,0,0,1,443.44,118.4ZM417.1,105.84a11.91,11.91,0,0,0-3.83,7.72h23.86a12,12,0,0,0-3.82-7.68,12.58,12.58,0,0,0-16.21,0Z"/><path d="M452.92,82.69h6.73v52.06h-6.73Z"/><path d="M472.6,89.15a4.14,4.14,0,0,1-1.3-3.09,4.22,4.22,0,0,1,1.3-3.12,4.39,4.39,0,0,1,3.26-1.3,4.54,4.54,0,0,1,3.26,1.23,4,4,0,0,1,1.3,3,4.31,4.31,0,0,1-1.3,3.19,4.39,4.39,0,0,1-3.26,1.3A4.48,4.48,0,0,1,472.6,89.15Zm-.11,8.42h6.74v37.18h-6.74Z"/><path d="M525.53,118.4H495.36a11.67,11.67,0,0,0,4.32,7.9,14.06,14.06,0,0,0,9.15,3,13.8,13.8,0,0,0,10.74-4.49l3.72,4.35a16.41,16.41,0,0,1-6.28,4.49,23.71,23.71,0,0,1-18.84-.88,17.24,17.24,0,0,1-7.05-6.77,19.4,19.4,0,0,1-2.49-9.82,19.64,19.64,0,0,1,2.42-9.75,17.28,17.28,0,0,1,6.66-6.77,19,19,0,0,1,9.58-2.43,18.54,18.54,0,0,1,9.51,2.43,16.94,16.94,0,0,1,6.52,6.77,20.58,20.58,0,0,1,2.35,10A17.65,17.65,0,0,1,525.53,118.4Zm-26.34-12.56a11.91,11.91,0,0,0-3.83,7.72h23.86a12,12,0,0,0-3.83-7.68,12.56,12.56,0,0,0-16.2,0Z"/><path d="M546.65,98.9A18.89,18.89,0,0,1,555,97.21v6.53a12.42,12.42,0,0,0-1.54-.07q-5.48,0-8.6,3.26t-3.12,9.3v18.52H535V97.57h6.45v6.24A11.49,11.49,0,0,1,546.65,98.9Z"/><path d="M228.77,158.6v19.72h28.36v6.94H228.77v22.87h-8.08V151.57h39.92v7Z"/><path d="M272,151.57h8.08V201.1h30.63v7H272Z"/><path d="M329.05,205a27.76,27.76,0,0,1-10.79-10.38,29.86,29.86,0,0,1,0-29.58,27.83,27.83,0,0,1,10.79-10.38,33.4,33.4,0,0,1,30.79,0A27.56,27.56,0,0,1,370.59,165a30.35,30.35,0,0,1,0,29.66A27.56,27.56,0,0,1,359.84,205a33.4,33.4,0,0,1-30.79,0Zm26.63-6.26a20.79,20.79,0,0,0,7.83-7.8,22.94,22.94,0,0,0,0-22.22,20.79,20.79,0,0,0-7.83-7.8,22.32,22.32,0,0,0-11.2-2.83,22.75,22.75,0,0,0-11.27,2.83,20.68,20.68,0,0,0-7.92,7.8,22.94,22.94,0,0,0,0,22.22,20.68,20.68,0,0,0,7.92,7.8,22.65,22.65,0,0,0,11.27,2.83A22.22,22.22,0,0,0,355.68,198.76Z"/><path d="M424.64,208.13l-12.2-17.37c-1.51.11-2.69.16-3.55.16h-14v17.21h-8.08V151.57h22.06q11,0,17.29,5.25t6.3,14.46a19,19,0,0,1-3.23,11.16,18.25,18.25,0,0,1-9.21,6.7l13.41,19Zm-4.28-27.39q4-3.31,4-9.46t-4-9.41q-4-3.27-11.72-3.27H394.91v25.45h13.73Q416.32,184.05,420.36,180.74Z"/><path d="M445.57,151.57h8.08v56.56h-8.08Z"/><path d="M506.66,194H476.6l-6.22,14.14h-8.32l25.61-56.56h8l25.7,56.56h-8.49Zm-2.83-6.46-12.2-27.72-12.2,27.72Z"/><path d="M578.42,151.57v56.56h-6.63L537.85,166v42.18h-8.08V151.57h6.63l33.94,42.18V151.57Z"/><path d="M636.43,201.1v7h-41V151.57H635.3v7H603.47V176h28.36v6.87H603.47V201.1Z"/><path d="M308.29,72.57a3.71,3.71,0,0,1-4.76.47c-67.4-45.61-147.91-52.7-199.87-33.72-28.27,10.33-45.17,27.39-47.58,48-1.61,13.76,3.19,28.67,14.27,44.32,12.5,17.67,32.68,35.76,60,53.77a3.8,3.8,0,0,1,1.52,4.54,3.73,3.73,0,0,1-5.52,1.75c-28.12-18.55-49-37.3-62-55.75-12.18-17.2-17.42-33.86-15.59-49.49,1.4-12,7-23,16.47-32.48,9-9,21.07-16.26,35.95-21.7C132.91,20.7,174.56,19,215.38,27.7q10.16,2.16,20.05,5.09a262,262,0,0,1,72.26,34.09,3.72,3.72,0,0,1,.6,5.69Z"/><path class="cls-1" d="M277.2,42c73.51-29.94,21.37-77.33,0,0"/><path class="cls-1" d="M265.73,52.71c-61.78,49.82,1.79,80.21,0,0"/><path d="M270.8,42.59l3.92-5.25C293.82,11.78,310.09,7.4,319,11.82c5.3,2.64,7.69,8.42,5.95,14.38-2.89,9.89-17.09,20.3-47.59,17.08Zm47.08-19a4.3,4.3,0,0,0-2.26-5.06c-4-2-15.28-.47-30.63,17.87,9.1.33,16.89-.77,22.8-3.25,5.3-2.21,8.93-5.49,9.95-9A4.17,4.17,0,0,0,317.88,23.55Z"/><path d="M244.43,81.61c2-9.92,7.62-21.4,16.19-33.29a2.64,2.64,0,0,1,.34-.41,3.74,3.74,0,0,1,2-1.1,3.88,3.88,0,0,1,1,0,3.81,3.81,0,0,1,1.81.69,3.67,3.67,0,0,1,1.4,2c10,33.63,3.18,51.38-5.74,56.35a10.69,10.69,0,0,1-13.59-2.32c-4-4.49-5.3-11.89-3.67-20.84C244.3,82.31,244.36,82,244.43,81.61Zm17.73-22.27C249,80.23,249.47,94,253.46,98.53a3.26,3.26,0,0,0,4.4.78C263,96.43,267.83,83.55,262.16,59.34Z"/><path class="cls-1" d="M56.61,94.85c74.12,28.39,68.46-41.85,0,0"/><path d="M92.3,98.74C82.7,102,70,102.9,55.39,101.47a2.35,2.35,0,0,1-.53-.09,3.65,3.65,0,0,1-2-1.21,3.79,3.79,0,0,1-.55-.86A3.71,3.71,0,0,1,52,97.4a3.67,3.67,0,0,1,1-2.22c24-25.57,42.83-28.56,51.61-23.35a10.72,10.72,0,0,1,4.82,12.93c-1.88,5.71-7.62,10.55-16.18,13.63ZM64.14,94.6c24.67.89,36.38-6.46,38.26-12.17a3.25,3.25,0,0,0-1.54-4.19C95.79,75.23,82.22,77.54,64.14,94.6Z"/><path class="cls-1" d="M48.54,93.37c-79.37-.91-48.23-64.12,0,0"/><path d="M13.93,83.84c7.74,6.53,19.22,12.1,33.31,16.15a4.36,4.36,0,0,0,.52.11A3.72,3.72,0,0,0,50,99.69a3.52,3.52,0,0,0,.83-.6,3.75,3.75,0,0,0,.86-4.1C38.8,62.37,22.44,52.67,12.35,54.28A10.69,10.69,0,0,0,3.11,64.52c-.36,6,3.19,12.61,10,18.63Zm27.7,6.53C18.37,82.11,10.19,71,10.55,65a3.24,3.24,0,0,1,3-3.33C19.35,60.71,31.11,67.85,41.63,90.37Z"/><path class="cls-1" d="M134.67,204.57c16.94,77.55,72.55,34.27,0,0"/><path d="M135.21,198.17l4.5,4.76c21.92,23.19,23.46,40,17.59,47.94-3.5,4.77-9.6,6.14-15.18,3.41-9.25-4.54-17.08-20.3-8.7-49.8Zm10.72,49.65a4.3,4.3,0,0,0,5.37-1.37c2.68-3.63,3.08-15-12.37-33.23-1.88,8.91-2.13,16.77-.7,23,1.28,5.6,3.89,9.74,7.17,11.35Z"/></svg>