<svg xmlns="http://www.w3.org/2000/svg" viewBox="0 0 204.37 112.77"><defs><style>.cls-1{fill:#29293d;}</style></defs><g id="Calque_1" data-name="Calque 1"><path class="cls-1" d="M157.48,111.36a1.34,1.34,0,0,1,1.39-1.39,1.33,1.33,0,0,1,1,.39,1.26,1.26,0,0,1,.4.93,1.4,1.4,0,0,1-1.36,1.36,1.34,1.34,0,0,1-1.34-1.32v0Z"/><path class="cls-1" d="M162.74,101.67h3.7v10.78h-2.33v-8.52h-1.37Z"/><path class="cls-1" d="M173.15,101.38a3,3,0,0,1,2.66,1.45,10.21,10.21,0,0,1,0,8.45,3.16,3.16,0,0,1-5.25.09,7.79,7.79,0,0,1-1-4.4,7.69,7.69,0,0,1,.93-4.12,2.91,2.91,0,0,1,2.6-1.47ZM171.94,107c0,2.3.4,3.45,1.19,3.45a1,1,0,0,0,.94-.76,7.67,7.67,0,0,0,.28-2.43,8.89,8.89,0,0,0-.28-2.67,1,1,0,0,0-1-.83c-.7,0-1.13,1.11-1.13,3.24Z"/><path class="cls-1" d="M179.47,101.65h4.59v2.17h-2.78l-.24,1.63a3.16,3.16,0,0,1,2.37,1,3.62,3.62,0,0,1,.82,2.51,3.92,3.92,0,0,1-1,2.77,3.35,3.35,0,0,1-2.59,1,8.06,8.06,0,0,1-2.38-.48l.31-2.07a5.67,5.67,0,0,0,1.76.47,1.4,1.4,0,0,0,1.12-.48,2.13,2.13,0,0,0,.39-1.36,1.39,1.39,0,0,0-.52-1.17,2.26,2.26,0,0,0-1.49-.42,5.39,5.39,0,0,0-1.13.15Z"/><path class="cls-1" d="M189.37,101.38a3,3,0,0,1,2.66,1.45,10.21,10.21,0,0,1,0,8.45,3.16,3.16,0,0,1-5.25.09,7.79,7.79,0,0,1-1-4.4,7.69,7.69,0,0,1,.93-4.12,2.91,2.91,0,0,1,2.6-1.47ZM188.16,107c0,2.3.4,3.45,1.19,3.45a1,1,0,0,0,.94-.76,7.67,7.67,0,0,0,.28-2.43,8.89,8.89,0,0,0-.28-2.67,1,1,0,0,0-1-.83C188.55,103.72,188.16,104.83,188.16,107Z"/><path class="cls-1" d="M196.68,105v.91a2.77,2.77,0,0,1,2-1.17,1.54,1.54,0,0,1,1.6,1.28,4.79,4.79,0,0,1,1.06-1,2.08,2.08,0,0,1,1.14-.31c1.1,0,1.64.76,1.64,2.29v5.4h-2.35V108c0-.71-.23-1.07-.69-1.07s-.71.35-.71,1.06v4.4H198V107.9a1.07,1.07,0,0,0-.19-.67.55.55,0,0,0-.48-.27.64.64,0,0,0-.51.26,1.09,1.09,0,0,0-.19.7v4.5h-2.27V105Z"/><polygon class="cls-1" points="18.94 37.16 10.57 37.16 10.57 1.36 0 1.36 0 47.94 18.94 47.94 18.94 37.16"/><path class="cls-1" d="M22.6,15.49l2.93,3.28q5.24-4.71,5.24-14.2V0H22.19V8.59h3.55A12.91,12.91,0,0,1,22.6,15.49Z"/><path class="cls-1" d="M93.25,49.23q5.73,0,8.92-1.76A11.24,11.24,0,0,0,107,41.94a25.46,25.46,0,0,0,1.64-10V1.37H97.86V33.83a5.84,5.84,0,0,1-1.24,3.94,4.67,4.67,0,0,1-6.6.13l0,0a5.24,5.24,0,0,1-1.22-3.64V1.41H77.9V30.34q0,10.29,3.46,14.61T93.25,49.23Z"/><path class="cls-1" d="M54.27,1.13q-5.73,0-8.91,1.76a11.12,11.12,0,0,0-4.84,5.53,25.46,25.46,0,0,0-1.64,10v94.3H49.66V70.11h9.11v42.61H69.62V20.06q0-10.29-3.45-14.62T54.27,1.13Zm-4.61,59V16.54A5.84,5.84,0,0,1,50.9,12.6a4.69,4.69,0,0,1,6.63-.11l0,0a5.27,5.27,0,0,1,1.22,3.65v44Z"/><polygon class="cls-1" points="121.93 47.94 132.64 47.94 132.64 12 139.93 12 139.93 1.36 114.71 1.36 114.71 12 121.93 12 121.93 47.94"/><path class="cls-1" d="M157.06,26.73h.18l8.54,21.21H177l-8.44-21a10.79,10.79,0,0,0,4.77-4.77,13.94,13.94,0,0,0,1.64-6.54A13.27,13.27,0,0,0,170.6,5.2q-4.32-3.86-11.79-3.84H146.49V47.94h10.57Zm0-16.36c2.51.07,4.3.57,5.39,1.5s1.62,2.47,1.62,4.64q0,4.77-7,4.91Z"/><polygon class="cls-1" points="193.49 38 193.49 29.52 202.87 29.52 202.87 19.86 193.49 19.86 193.49 11.27 204.3 11.27 204.3 1.36 182.91 1.36 182.91 47.94 204.37 47.94 204.37 38 193.49 38"/><path class="cls-1" d="M27.37,64.62q-4.73-4.46-12.52-4.45H.08v52.56H12v-20h2.05q8.46,0,13.25-4.35t4.78-12A15.34,15.34,0,0,0,27.37,64.62ZM17.94,81.11c-1.27,1-3.24,1.49-5.93,1.54V70.25c2.76,0,4.75.54,6,1.47s1.85,2.53,1.85,4.79a5.42,5.42,0,0,1-2,4.6Z"/><path class="cls-1" d="M110.37,83.65a15.71,15.71,0,0,0,1.85-7.38q0-7.44-4.88-11.77T94,60.17H80.13v52.56H92.06V88.83h.2l9.65,23.94h12.6L105,89.07A12.18,12.18,0,0,0,110.37,83.65Zm-18.31-.84V70.33c2.84.07,4.87.64,6.09,1.69S100,74.81,100,77.26q0,5.38-7.88,5.57Z"/><rect class="cls-1" x="121.93" y="60.17" width="82.44" height="9.96"/></g></svg>