<svg xmlns="http://www.w3.org/2000/svg" viewBox="0 0 64.4 95.61"><defs><style>.cls-1{fill:#fff;}</style></defs><g id="Calque_1" data-name="Calque 1"><path class="cls-1" d="M21.73,63.3A1.59,1.59,0,0,0,21.22,62a2.9,2.9,0,0,0-1.68-.41V65a2.87,2.87,0,0,0,1.66-.43A1.49,1.49,0,0,0,21.73,63.3Z"/><path class="cls-1" d="M31.12,62.09h0q-.4,3-1.11,6.24h2.26A56.54,56.54,0,0,1,31.12,62.09Z"/><path class="cls-1" d="M44.13,63.51a1.8,1.8,0,0,0-.52-1.46,2.68,2.68,0,0,0-1.69-.47v3.48C43.39,65,44.13,64.52,44.13,63.51Z"/><polygon class="cls-1" points="0 35.6 0 50.28 5.97 50.28 5.97 46.88 3.33 46.88 3.33 35.6 0 35.6"/><path class="cls-1" d="M8.05,41.51A5.69,5.69,0,0,0,9.7,37V35.6H7v2.7H8.11a4,4,0,0,1-1,2.18Z"/><path class="cls-1" d="M19.13,47.78l.56,2.45h3.46L19.27,35.6H15.53L11.64,50.27H15l.58-2.45Zm-1.81-8.87h.05c.25,2,.63,4.08,1.12,6.24H16.21c.48-2.11.85-4.17,1.11-6.2Z"/><path class="cls-1" d="M24.55,35.6v9.11c0,2.16.36,3.7,1.09,4.61a4.57,4.57,0,0,0,3.74,1.36,5.92,5.92,0,0,0,2.81-.55,3.54,3.54,0,0,0,1.53-1.75,8.08,8.08,0,0,0,.51-3.15V35.6H30.84V45.78a1.75,1.75,0,0,1-.4,1.24,1.47,1.47,0,0,1-2.08,0h0A1.61,1.61,0,0,1,28,45.87V35.6Z"/><polygon class="cls-1" points="41.79 50.28 41.79 38.95 44.09 38.95 44.09 35.6 36.15 35.6 36.15 38.95 38.42 38.95 38.42 50.28 41.79 50.28"/><path class="cls-1" d="M54.6,42.16a4.34,4.34,0,0,0,.52-2.06,4.19,4.19,0,0,0-1.36-3.29A5.39,5.39,0,0,0,50,35.6H46.16V50.27h3.33V43.59h.06l2.69,6.68h3.52L53.1,43.66A3.4,3.4,0,0,0,54.6,42.16Zm-5.11-.24V38.44a2.78,2.78,0,0,1,1.7.47,1.84,1.84,0,0,1,.51,1.46c0,1-.74,1.52-2.21,1.55Z"/><polygon class="cls-1" points="60.97 44.47 63.92 44.47 63.92 41.43 60.97 41.43 60.97 38.72 64.38 38.72 64.38 35.6 57.64 35.6 57.64 50.28 64.4 50.28 64.4 47.14 60.97 47.14 60.97 44.47"/><polygon class="cls-1" points="61 81.88 3.4 81.88 3.4 53.67 0 53.67 0 81.88 0 85.28 3.4 85.28 61 85.28 64.4 85.28 64.4 81.88 64.4 53.67 61 53.67 61 81.88"/><path class="cls-1" d="M6.79,78.49H57.6v-3.4h0V53.67H6.79V75.09h0Zm31.8-19.71h3.88A5.43,5.43,0,0,1,46.18,60a4.18,4.18,0,0,1,1.37,3.29A4.34,4.34,0,0,1,47,65.34a3.42,3.42,0,0,1-1.51,1.5l2.66,6.62H44.66L42,66.78h0v6.69H38.59Zm-9.32,0H33L36.9,73.46H33.44L32.88,71H29.36l-.58,2.45h-3.4Zm-13.06,0h4.13A4.92,4.92,0,0,1,23.83,60a4.82,4.82,0,0,1,0,6.64,5.3,5.3,0,0,1-3.7,1.21h-.58v5.59H16.22Z"/><path class="cls-1" d="M32.2,3.4A28.83,28.83,0,0,1,61,32.2h3.4A32.2,32.2,0,0,0,0,32.2H3.4A28.83,28.83,0,0,1,32.2,3.4Z"/><path class="cls-1" d="M32.2,6.78A25.44,25.44,0,0,0,6.79,32.19H57.61A25.44,25.44,0,0,0,32.2,6.78ZM30.41,19.71a12.6,12.6,0,0,0-4.86,1.77l-6.74-6.7a21.9,21.9,0,0,1,11.6-4.48Zm8.33,1.7a12.38,12.38,0,0,0-4.93-1.73V10.25a21.86,21.86,0,0,1,11.68,4.41ZM16.27,17l6.64,6.64A12.68,12.68,0,0,0,20,28.81H10.45A21.94,21.94,0,0,1,16.27,17ZM44.34,28.78a12.63,12.63,0,0,0-3-5.24L48,16.9a22,22,0,0,1,6,11.88Z"/><path class="cls-1" d="M17.84,94.78a.73.73,0,0,1,.22-.54.76.76,0,0,1,1.09,0,.72.72,0,0,1,.23.53.81.81,0,0,1-.78.77.76.76,0,0,1-.76-.74v0Z"/><path class="cls-1" d="M20.84,89.25H23V95.4H21.62V90.54h-.78Z"/><path class="cls-1" d="M26.77,89.09a1.68,1.68,0,0,1,1.52.82,4.67,4.67,0,0,1,.52,2.43,4.42,4.42,0,0,1-.54,2.44,1.7,1.7,0,0,1-1.51.83,1.74,1.74,0,0,1-1.49-.83,4.36,4.36,0,0,1-.55-2.5,4.41,4.41,0,0,1,.53-2.36,1.67,1.67,0,0,1,1.48-.83Zm-.69,3.18c0,1.31.23,2,.68,2,.25,0,.42-.15.53-.44a4.29,4.29,0,0,0,.17-1.38,5.18,5.18,0,0,0-.17-1.52q-.16-.48-.54-.48C26.27,90.42,26.08,91,26.08,92.27Z"/><path class="cls-1" d="M30.38,89.24H33v1.24H31.41l-.14.93a1.76,1.76,0,0,1,1.35.55,2.06,2.06,0,0,1,.47,1.43A2.22,2.22,0,0,1,32.54,95a1.92,1.92,0,0,1-1.48.59,4.45,4.45,0,0,1-1.35-.28l.18-1.18a2.91,2.91,0,0,0,1,.27.76.76,0,0,0,.64-.27,1.14,1.14,0,0,0,.23-.78.82.82,0,0,0-.3-.67,1.35,1.35,0,0,0-.85-.23,3.4,3.4,0,0,0-.64.08Z"/><path class="cls-1" d="M36,89.09a1.66,1.66,0,0,1,1.51.82,4.67,4.67,0,0,1,.52,2.43,4.42,4.42,0,0,1-.53,2.39,1.78,1.78,0,0,1-3,0,5.74,5.74,0,0,1,0-4.86A1.64,1.64,0,0,1,36,89.09Zm-.69,3.18c0,1.31.22,2,.68,2a.56.56,0,0,0,.53-.44,4.28,4.28,0,0,0,.16-1.38,5.21,5.21,0,0,0-.16-1.52q-.16-.48-.54-.48C35.55,90.42,35.33,91,35.33,92.27Z"/><path class="cls-1" d="M40.18,91.16v.52A1.59,1.59,0,0,1,41.34,91a.9.9,0,0,1,.92.74,2.45,2.45,0,0,1,.6-.56,1.22,1.22,0,0,1,.65-.18c.63,0,.94.44.94,1.31V95.4H43.11V92.9c0-.41-.13-.61-.4-.61s-.4.2-.4.6V95.4H41V92.78a.73.73,0,0,0-.11-.38.35.35,0,0,0-.28-.15.34.34,0,0,0-.29.14.64.64,0,0,0-.11.4v2.57H38.85V91.12Z"/></g></svg>