<svg xmlns="http://www.w3.org/2000/svg" viewBox="0 0 79.4 70.08"><defs><style>.cls-1{fill:#fff;}</style></defs><g id="Calque_1" data-name="Calque 1"><path class="cls-1" d="M79.35,34.91v-4c0-2.64-1-3.9-2.79-3.94H43.26l-.1,0h2.6a1.13,1.13,0,0,0,0-.26,18.25,18.25,0,1,0-36.5,0V27H4A4,4,0,1,0,4,34.9H17.19V27h0a1.13,1.13,0,0,1,0-.26,10.32,10.32,0,1,1,20.63-.64c0,.21,0,.43,0,.64V27h2.58l-.1,0H37.82V48.39a4,4,0,0,0,4,4h0a4,4,0,0,0,4-4V34.94H71.46V35a27.11,27.11,0,0,1-54.22,0v-.13H9.31V35A35,35,0,0,0,79.4,35v-.13Z"/><circle class="cls-1" cx="59.77" cy="10.31" r="10.31"/><circle class="cls-1" cx="27.51" cy="30.94" r="3.97"/></g></svg>