<svg xmlns="http://www.w3.org/2000/svg" viewBox="0 0 138.11 122.01"><defs><style>.cls-1{fill:#f21b54;}.cls-2{fill:#29293d;}</style></defs><g id="Calque_1" data-name="Calque 1"><circle class="cls-1" cx="104.01" cy="17.95" r="17.95"/><path class="cls-2" d="M138.06,60.74v-6.9c0-4.6-1.72-6.84-4.85-6.9H79.61v-.46a31.75,31.75,0,0,0-63.5,0v.46H6.9A6.9,6.9,0,0,0,0,53.84H0a6.9,6.9,0,0,0,6.9,6.9h9.21V61a61,61,0,0,0,122,.09v-.32ZM124.28,61A47.17,47.17,0,0,1,30,62.34c0-.45,0-.91,0-1.37v-.23h0V46.48a17.95,17.95,0,1,1,35.89-.84V84.22a6.9,6.9,0,0,0,6.9,6.9h0a6.9,6.9,0,0,0,6.9-6.9V60.74h44.66Z"/><circle class="cls-2" cx="47.86" cy="53.84" r="6.9"/></g></svg>