<svg id="Calque_2" data-name="Calque 2" xmlns="http://www.w3.org/2000/svg" viewBox="0 0 470.77 215.31"><defs><style>.cls-1{fill:#f33;}.cls-2{fill:#fff;}.cls-3{fill:#2b001e;}</style></defs><path class="cls-1" d="M102,0h-.36C47.83-.15-5.72,56,.49,166.71a25.28,25.28,0,0,0,11,19.47c29.52,20.15,59.62,29.64,90.26,29.11,30.64.53,60.74-9,90.26-29.11a25.28,25.28,0,0,0,11-19.47C209.26,56,155.71-.15,102,0Z"/><path class="cls-2" d="M194.27,183.83a17.72,17.72,0,0,0,7.1-14.69c-3.93-168-118.08-166-118.08,9v18.75a17.76,17.76,0,0,0,17.85,17.77A161.32,161.32,0,0,0,194.27,183.83Z"/><path class="cls-3" d="M196.35,178.31h-.12a5.17,5.17,0,0,1-5.06-5.3c1.7-70.77-18.74-108.15-38.44-119.54-10.06-5.81-20.59-5.71-30.46.29C104,64.84,85.61,99.09,88.53,162v.24c0,2.91,3.9,5.67,8,5.67a8.92,8.92,0,0,0,7.1-3.46c2.65-3.23,4-8.54,4-15.36a5.18,5.18,0,0,1,10.36,0c0,9.37-2.15,16.75-6.38,21.92a19.28,19.28,0,0,1-15.13,7.26c-9.91,0-18.3-7.26-18.38-15.9C75.53,105.14,90,61.25,116.89,44.9c13.11-8,27.68-8.13,41-.42,28.86,16.68,45.16,64.82,43.62,128.77A5.18,5.18,0,0,1,196.35,178.31Z"/><path class="cls-3" d="M112,0h0m-9.91,10.37h0m-.28,0h.41c19.8,0,39.15,8.94,54.49,25.18,26.44,28,39.23,74.48,36,130.89a14.22,14.22,0,0,1-6.23,11C159.79,195.69,132.12,205,104.19,205l-2.24,0h-.36l-2.24,0c-27.93,0-55.6-9.26-82.25-27.51a14.23,14.23,0,0,1-6.24-11c-3.22-56.42,9.57-102.9,36-130.9,15.33-16.23,34.68-25.17,54.48-25.17h.41M101.94,0h-.57C47.62,0-5.81,56.22.51,167a24.71,24.71,0,0,0,10.73,19c28.83,19.74,58.22,29.31,88.11,29.31l2.42,0,2.42,0c29.9,0,59.28-9.57,88.12-29.31A24.7,24.7,0,0,0,203,167C209.36,56.22,155.92,0,102.18,0h-.24Z"/><path class="cls-3" d="M126.67,113.54l28.53-12.73a4.1,4.1,0,0,1,4.07,7.08l-25.38,18.23a7.29,7.29,0,1,1-7.22-12.58Z"/><path class="cls-3" d="M69.65,126.12,44.28,107.89a4.1,4.1,0,0,1,4.06-7.08l28.54,12.73a7.29,7.29,0,0,1-5.94,13.32A7.45,7.45,0,0,1,69.65,126.12Z"/><ellipse class="cls-1" cx="157.75" cy="153.43" rx="15.03" ry="11.4"/><ellipse class="cls-2" cx="45.79" cy="153.43" rx="15.03" ry="11.4"/><path class="cls-1" d="M369.18,0h-.36c-53.76-.15-107.31,56-101.1,166.71a25.28,25.28,0,0,0,11,19.47c29.52,20.15,59.62,29.64,90.26,29.11,30.64.53,60.74-9,90.26-29.11a25.28,25.28,0,0,0,11-19.47C476.49,56,422.94-.15,369.18,0Z"/><path class="cls-2" d="M461.49,183.83a17.67,17.67,0,0,0,7.1-14.69c-3.92-168-118.07-166-118.07,9v18.75a17.75,17.75,0,0,0,17.84,17.77A161.3,161.3,0,0,0,461.49,183.83Z"/><path class="cls-3" d="M463.58,178.31h-.13a5.17,5.17,0,0,1-5.05-5.3C460.1,102.23,439.65,64.85,420,53.46c-10.05-5.81-20.58-5.71-30.45.29C371.27,64.84,352.83,99.09,355.75,162v.24c0,2.91,3.9,5.67,8,5.67a8.93,8.93,0,0,0,7.1-3.46c2.64-3.23,4-8.54,4-15.36a5.19,5.19,0,0,1,10.37,0c0,9.37-2.15,16.75-6.39,21.92a19.26,19.26,0,0,1-15.12,7.26c-9.92,0-18.3-7.26-18.39-15.9-2.63-57.18,11.84-101.07,38.72-117.42,13.12-8,27.69-8.13,41-.42C454,61.16,470.3,109.3,468.76,173.25A5.19,5.19,0,0,1,463.58,178.31Z"/><path class="cls-3" d="M379.19,0h0m-9.91,10.37h0m-.28,0h.4c19.81,0,39.16,8.94,54.5,25.18,26.44,28,39.23,74.48,36,130.89a14.23,14.23,0,0,1-6.24,11C427,195.69,399.35,205,371.42,205l-2.24,0h-.36l-2.24,0c-27.93,0-55.6-9.26-82.26-27.51a14.22,14.22,0,0,1-6.23-11c-3.22-56.42,9.57-102.9,36-130.9,15.34-16.23,34.69-25.17,54.49-25.17H369M369.16,0h-.57C314.85,0,261.41,56.22,267.74,167a24.7,24.7,0,0,0,10.72,19c28.84,19.74,58.22,29.31,88.12,29.31l2.42,0,2.42,0c29.9,0,59.28-9.57,88.11-29.31a24.71,24.71,0,0,0,10.73-19C476.58,56.22,423.14,0,369.4,0h-.24Z"/><path class="cls-3" d="M400.38,101.3l26.79,16.08a4.1,4.1,0,0,1-3.47,7.39l-29.49-10.33A7.29,7.29,0,0,1,399,100.67,8.35,8.35,0,0,1,400.38,101.3Z"/><path class="cls-3" d="M343.78,114.45l-29.49,10.32a4.1,4.1,0,0,1-3.46-7.39l26.79-16.07a7.29,7.29,0,1,1,7.5,12.51A7.77,7.77,0,0,1,343.78,114.45Z"/><ellipse class="cls-1" cx="424.98" cy="153.43" rx="15.03" ry="11.4"/><ellipse class="cls-2" cx="313.02" cy="153.43" rx="15.03" ry="11.4"/></svg>