<svg xmlns="http://www.w3.org/2000/svg" viewBox="0 0 205.6 135.96"><defs><style>.cls-1{fill:#29293d;}</style></defs><g id="Calque_1" data-name="Calque 1"><path class="cls-1" d="M13.56,130.87V114.68H16v13.43h6.43v2.76Z"/><path class="cls-1" d="M30.92,114.68H33.4L38,130.87H35.52l-1.05-4H29.84l-1.06,4H26.26Zm3,9.94-1.73-6.68-1.75,6.68Z"/><path class="cls-1" d="M60.85,114.68v16.19H58.42V124H52.7v6.91H50.25V114.68H52.7v6.54h5.72v-6.54Z"/><path class="cls-1" d="M72.42,131a4.71,4.71,0,0,1-2.51-.69A6.24,6.24,0,0,1,68,128.44a9.18,9.18,0,0,1-1.25-2.64,10.29,10.29,0,0,1-.45-3,10.19,10.19,0,0,1,.47-3.09,9.58,9.58,0,0,1,1.3-2.62,6.27,6.27,0,0,1,2-1.82,4.72,4.72,0,0,1,2.48-.68,4.6,4.6,0,0,1,2.49.71,6.43,6.43,0,0,1,1.93,1.89,9.77,9.77,0,0,1,1.24,2.65,10.11,10.11,0,0,1,.45,3,10.47,10.47,0,0,1-.46,3.07,9.28,9.28,0,0,1-1.29,2.62,6.23,6.23,0,0,1-2,1.81A4.78,4.78,0,0,1,72.42,131Zm-3.66-8.22a8,8,0,0,0,.25,2,6.43,6.43,0,0,0,.72,1.75,3.74,3.74,0,0,0,1.16,1.21,2.81,2.81,0,0,0,1.55.44,2.76,2.76,0,0,0,1.58-.46,4,4,0,0,0,1.16-1.26,6.74,6.74,0,0,0,.7-1.76,8,8,0,0,0,0-4,6.58,6.58,0,0,0-.73-1.73A3.82,3.82,0,0,0,74,117.81a2.82,2.82,0,0,0-1.54-.44,2.71,2.71,0,0,0-1.59.47,3.82,3.82,0,0,0-1.15,1.24,6.34,6.34,0,0,0-.7,1.73A8,8,0,0,0,68.76,122.77Z"/><path class="cls-1" d="M84,130.87V114.68H89.6a3,3,0,0,1,1.61.45,4.53,4.53,0,0,1,1.28,1.23,6.38,6.38,0,0,1,.84,1.74,6.84,6.84,0,0,1,.29,2,7.15,7.15,0,0,1-.27,2,5.44,5.44,0,0,1-.8,1.66,3.75,3.75,0,0,1-1.2,1.09l2.87,6.09h-2.7l-2.59-5.43H86.48v5.43Zm2.46-8.19h3.07a1.11,1.11,0,0,0,.82-.35,2.59,2.59,0,0,0,.57-1,3.89,3.89,0,0,0,.21-1.32,3.37,3.37,0,0,0-.25-1.36,2.42,2.42,0,0,0-.63-.92,1.2,1.2,0,0,0-.83-.34h-3Z"/><path class="cls-1" d="M102.82,114.68h2.49L110,130.87h-2.52l-1.05-4h-4.63l-1.06,4H98.17Zm3,9.94-1.73-6.68-1.75,6.68Z"/><path class="cls-1" d="M129.67,118.92a2.72,2.72,0,0,0-.45-.43,4.63,4.63,0,0,0-.8-.53,7.83,7.83,0,0,0-1-.44,3.35,3.35,0,0,0-1.12-.2,2.08,2.08,0,0,0-1.5.48,1.74,1.74,0,0,0-.51,1.34,1.6,1.6,0,0,0,.32,1,2.39,2.39,0,0,0,1,.66c.43.18,1,.38,1.6.59a9.82,9.82,0,0,1,2.16.94,3.89,3.89,0,0,1,1.4,1.45,4.93,4.93,0,0,1,.49,2.38,6,6,0,0,1-.37,2.21,4,4,0,0,1-1,1.49,4.22,4.22,0,0,1-1.5.82,5.7,5.7,0,0,1-1.77.27,7.23,7.23,0,0,1-1.89-.26,8.2,8.2,0,0,1-1.81-.71,8.56,8.56,0,0,1-1.6-1.13l1.08-2.72a3.86,3.86,0,0,0,.57.54,7.88,7.88,0,0,0,1,.66,7.07,7.07,0,0,0,1.28.56,4.51,4.51,0,0,0,1.4.23,2.32,2.32,0,0,0,1.51-.43,1.48,1.48,0,0,0,.52-1.22,1.58,1.58,0,0,0-.41-1.14,3.43,3.43,0,0,0-1.14-.71c-.48-.21-1.06-.43-1.72-.67a9,9,0,0,1-2-1,3.22,3.22,0,0,1-1.19-1.35,4.7,4.7,0,0,1-.39-2,5.69,5.69,0,0,1,.61-2.78,4.21,4.21,0,0,1,1.66-1.71,4.82,4.82,0,0,1,2.33-.58,5.79,5.79,0,0,1,1.68.25,7.58,7.58,0,0,1,1.48.66,9.27,9.27,0,0,1,1.25.89Z"/><path class="cls-1" d="M147.21,114.68v16.19h-2.44V124h-5.72v6.91H136.6V114.68h2.45v6.54h5.72v-6.54Z"/><path class="cls-1" d="M158.74,131a4.77,4.77,0,0,1-2.57-.66,4.88,4.88,0,0,1-1.7-1.79,8.61,8.61,0,0,1-.95-2.58,14.28,14.28,0,0,1-.31-3v-8.25h2.46v8.25a12.42,12.42,0,0,0,.15,1.95,6.51,6.51,0,0,0,.5,1.7,3.16,3.16,0,0,0,1,1.19,2.35,2.35,0,0,0,1.45.43,2.48,2.48,0,0,0,1.49-.44,3.15,3.15,0,0,0,.94-1.2,6.51,6.51,0,0,0,.5-1.7,11.17,11.17,0,0,0,.16-1.93v-8.25h2.44v8.25a15.52,15.52,0,0,1-.31,3.13,8.38,8.38,0,0,1-1,2.56,5,5,0,0,1-1.71,1.74A4.8,4.8,0,0,1,158.74,131Z"/><path class="cls-1" d="M170.27,130.87V114.68h8.48v2.76h-6v4.17h5v2.55h-5v6.71Z"/><path class="cls-1" d="M189.37,131a4.73,4.73,0,0,1-2.56-.66,4.83,4.83,0,0,1-1.71-1.79,8.89,8.89,0,0,1-.95-2.58,15,15,0,0,1-.3-3v-8.25h2.45v8.25a12.42,12.42,0,0,0,.15,1.95,6.15,6.15,0,0,0,.51,1.7,3,3,0,0,0,.94,1.19,2.35,2.35,0,0,0,1.45.43,2.46,2.46,0,0,0,1.49-.44,3.15,3.15,0,0,0,.94-1.2,6.91,6.91,0,0,0,.51-1.7,12.26,12.26,0,0,0,.16-1.93v-8.25h2.43v8.25a14.83,14.83,0,0,1-.31,3.13,8.13,8.13,0,0,1-1,2.56,4.92,4.92,0,0,1-1.71,1.74A4.8,4.8,0,0,1,189.37,131Z"/><path class="cls-1" d="M205.4,33.84a62.6,62.6,0,0,0-7.63-2.54c-.63-.19-1.29-.29-1.94-.44a18.6,18.6,0,0,0-2-.37l-2-.27-2-.13c-.32,0-.65-.05-1-.05h-1c-.65,0-1.3,0-2,0a33.68,33.68,0,0,0-3.88.47c-.64.12-1.28.22-1.91.36l-1.88.51-.94.25c-.31.09-.62.21-.92.32l-1.84.65a56.72,56.72,0,0,0-13.61,7.69c-.54.36-1.05.79-1.58,1.2l-1.55,1.22-.78.61-.4.31-.47.34a15.4,15.4,0,0,1-1.94,1.27A22.12,22.12,0,0,1,145.72,48a32.1,32.1,0,0,1-8.77-.28,47.16,47.16,0,0,1-8.3-2.1,68.48,68.48,0,0,1-7.79-3.27L119,41.47c-.59-.28-1.17-.58-1.76-.84l-1.78-.81-1.79-.75A51.69,51.69,0,0,0,99,35.31a34.15,34.15,0,0,0-7.43.13,32.82,32.82,0,0,0-7.18,1.72,37.27,37.27,0,0,0-6.73,3.26,50,50,0,0,0-6.21,4.45c-.49.4-1,.83-1.47,1.26l-.36.32-.49.4a10.66,10.66,0,0,1-1,.76,16.51,16.51,0,0,1-4.35,2.16,19.53,19.53,0,0,1-4.61,1,20.66,20.66,0,0,1-4.65-.05,22.28,22.28,0,0,1-2.29-.37c-.75-.2-1.51-.37-2.24-.64a19.89,19.89,0,0,1-2.17-.85c-.35-.16-.69-.36-1-.53s-.69-.36-1-.59a21.62,21.62,0,0,1-1.87-1.32l-1.56-1.16c-.52-.37-1-.72-1.58-1.09s-1.08-.69-1.62-1a34.83,34.83,0,0,0-14-5.23,21.47,21.47,0,0,0-14.08,3,18.07,18.07,0,0,0-5.2,5.07A16.27,16.27,0,0,0,3.15,52.7,14.82,14.82,0,0,0,4,60a16.09,16.09,0,0,0,1.74,3.34,19.58,19.58,0,0,0,2.44,3,26.11,26.11,0,0,0,6.37,4.53,41.35,41.35,0,0,0,7.44,3l-.1.45A39.66,39.66,0,0,1,14,72a27.15,27.15,0,0,1-7.16-4.25A19.26,19.26,0,0,1,1.61,61,17.75,17.75,0,0,1,0,52.39,18.8,18.8,0,0,1,2.69,44a21.55,21.55,0,0,1,6-6.49,23.23,23.23,0,0,1,8-3.69,27.58,27.58,0,0,1,8.77-.68,34.42,34.42,0,0,1,8.5,1.8,43.07,43.07,0,0,1,7.81,3.55c.61.37,1.23.72,1.83,1.1s1.19.76,1.78,1.16L47.12,42c.52.38,1,.71,1.47,1,.22.14.47.25.73.38s.51.26.78.37a14.72,14.72,0,0,0,1.61.59c.54.19,1.11.3,1.66.44s1.13.21,1.71.24a15.13,15.13,0,0,0,3.43,0,13.64,13.64,0,0,0,3.28-.76,11.17,11.17,0,0,0,2.86-1.46,4.71,4.71,0,0,0,.61-.47l.29-.24.39-.35c.52-.47,1-.94,1.59-1.4a48.2,48.2,0,0,1,14.71-8.87,38.93,38.93,0,0,1,17.26-2.2A55.45,55.45,0,0,1,116,33.53l1.93.84,1.9.89c.63.3,1.24.64,1.87,1l1.79.92a61.79,61.79,0,0,0,7.07,3.16,42.86,42.86,0,0,0,7.32,2.1,28.7,28.7,0,0,0,7.36.52,17.61,17.61,0,0,0,6.8-1.82,11,11,0,0,0,1.49-.88l.37-.23.42-.29.84-.6,1.69-1.2c.56-.39,1.11-.81,1.71-1.16a59.58,59.58,0,0,1,15-7.3l2-.57c.33-.09.67-.19,1-.27l1-.19L179.7,28c.7-.1,1.4-.15,2.1-.23a39.14,39.14,0,0,1,4.19-.17c.7,0,1.4.08,2.09.12l1,.07c.34,0,.69.11,1,.16l2.06.33,2,.48a20.4,20.4,0,0,1,2,.57c.65.21,1.32.39,2,.64l1.91.76c.64.24,1.25.56,1.87.84,1.25.54,2.43,1.22,3.64,1.85Z"/><path class="cls-1" d="M52.33,20.5a2.16,2.16,0,0,0-.25,1,2,2,0,0,0,0,.43A17.75,17.75,0,0,1,49.81,21a15.6,15.6,0,0,1-3.64-2.45l0,0A20.78,20.78,0,0,0,50,20,20.35,20.35,0,0,0,52.33,20.5Z"/><path class="cls-1" d="M72.38,16c-.6.46-1.19.93-1.78,1.42l-.18.15c-.39.33-.79.66-1.18,1l-.67.59c-.27.22-.54.44-.82.64a16,16,0,0,1-7.38,2.85,15.2,15.2,0,0,1-1.9.15A17.09,17.09,0,0,1,56,22.76a2.19,2.19,0,0,0,.4-1.25,2,2,0,0,0-.15-.77,20.18,20.18,0,0,0,2.33-.22c.46-.07.92-.16,1.37-.26a14.84,14.84,0,0,0,6-2.81,7.45,7.45,0,0,0,.6-.52l.69-.62c.4-.37.81-.72,1.23-1.07l.18-.16c.56-.47,1.14-.94,1.72-1.39A3.21,3.21,0,0,0,72.38,16Z"/><path class="cls-1" d="M94.22,4.33a3.8,3.8,0,0,0-.42,1.75,3.69,3.69,0,0,0,.3,1.48c-.44,0-.89,0-1.33.08l-1,.1A35.18,35.18,0,0,0,85.9,8.9a37.09,37.09,0,0,0-7.09,2.94c-.74.39-1.46.81-2.17,1.25a.09.09,0,0,0,0-.05,3.2,3.2,0,0,0-1.52-2.71c.7-.43,1.41-.84,2.14-1.23A39.78,39.78,0,0,1,85,5.85a38.34,38.34,0,0,1,6.71-1.34C92.55,4.43,93.38,4.37,94.22,4.33Z"/><path class="cls-1" d="M120.23,10.86a3.84,3.84,0,0,0-1,2.62c0,.12,0,.23,0,.34-.74-.37-1.5-.73-2.26-1.07-1.14-.53-2.3-1-3.46-1.49a54.69,54.69,0,0,0-10.23-3c-.78-.15-1.57-.28-2.36-.38a3.75,3.75,0,0,0,.46-1.79,3.67,3.67,0,0,0-.28-1.42c.84.1,1.67.24,2.49.39a57.9,57.9,0,0,1,11.08,3.29c1.16.48,2.31,1,3.45,1.5C118.81,10.16,119.53,10.5,120.23,10.86Z"/><path class="cls-1" d="M143.8,19a3.2,3.2,0,0,0,.26,1.24,23.68,23.68,0,0,1-2.38.1h-.21a34.67,34.67,0,0,1-7.47-.89,49.51,49.51,0,0,1-6.31-1.84l-.87-.33c-.5-.19-1-.39-1.51-.6a3.86,3.86,0,0,0,1.59-2.47l1,.44,1.15.47c.72.29,1.45.57,2.18.84,1.11.41,2.24.79,3.38,1.12s2.3.61,3.46.84a34,34,0,0,0,3.48.54h0c.75.07,1.51.12,2.26.13A2.73,2.73,0,0,0,143.8,19Z"/><path class="cls-1" d="M155.37,15.65a16.18,16.18,0,0,1-3,2.16,18.88,18.88,0,0,1-2.18,1,3,3,0,0,0-.18-.94,17.35,17.35,0,0,0,2.19-.69,19.48,19.48,0,0,0,3.16-1.59Z"/><path class="cls-1" d="M62.4,83.12a12.24,12.24,0,0,1,3.23-1.36,33.06,33.06,0,0,1,3.4-.7c2.29-.3,4.58-.48,6.86-.56,4.56-.15,9.09,0,13.58.09s9,.31,13.42.39c2.23,0,4.44.06,6.65,0s4.42,0,6.63,0l-.26,0a9.71,9.71,0,0,0,5.5-2.42,5.25,5.25,0,0,0,1.32-5.22,8.77,8.77,0,0,0-1.43-2.87,13.66,13.66,0,0,0-2.41-2.46,24,24,0,0,0-6.42-3.5l.11-.45A20.44,20.44,0,0,1,120,66.42a14.63,14.63,0,0,1,3.28,2.42,11.16,11.16,0,0,1,2.42,3.56,8.63,8.63,0,0,1-1.29,8.88,11.34,11.34,0,0,1-3.58,2.85,15.79,15.79,0,0,1-4.1,1.44l-.25,0a72.69,72.69,0,0,1-13.74.44c-4.55-.18-9.07-.57-13.56-1L75.79,83.5c-2.22-.22-4.44-.46-6.65-.52-1.1,0-2.21,0-3.3,0a13.62,13.62,0,0,0-3.24.53Z"/><path class="cls-1" d="M58.57,20.52A4.45,4.45,0,0,0,50,20a4.7,4.7,0,0,0-.23,1,4.12,4.12,0,0,0,0,.51,4.45,4.45,0,0,0,8.69,1.34,4.23,4.23,0,0,0,.21-1.34A4.62,4.62,0,0,0,58.57,20.52Zm-4.34,3.14a2.16,2.16,0,0,1-2.11-1.72,2,2,0,0,1,0-.43,2.15,2.15,0,0,1,4.16-.77,2,2,0,0,1,.15.77,2.15,2.15,0,0,1-2.16,2.15Z"/><path class="cls-1" d="M39.71,11.32A3.32,3.32,0,1,0,43,14.63,3.31,3.31,0,0,0,39.71,11.32Zm0,4.33a1,1,0,1,1,1-1A1,1,0,0,1,39.71,15.65Z"/><path class="cls-1" d="M78.81,11.84A5.54,5.54,0,0,0,77.27,9.1,5.48,5.48,0,0,0,68,13a5.47,5.47,0,0,0,5.48,5.48A5.49,5.49,0,0,0,78.94,13,5.25,5.25,0,0,0,78.81,11.84Zm-5.36,4.39A3.17,3.17,0,0,1,72.38,16a3.21,3.21,0,0,1-2-2.35,3.49,3.49,0,0,1-.06-.65,3.19,3.19,0,0,1,3.18-3.19,3.09,3.09,0,0,1,1.68.48A3.2,3.2,0,0,1,76.65,13a.09.09,0,0,1,0,.05A3.19,3.19,0,0,1,73.45,16.23Z"/><path class="cls-1" d="M103.57,5.05a6.08,6.08,0,0,0-11.86-.54,5.78,5.78,0,0,0-.21,1.57,6.08,6.08,0,0,0,11.76,2.17,6.28,6.28,0,0,0,.4-2.17A5.8,5.8,0,0,0,103.57,5.05Zm-6,4.81a3.79,3.79,0,0,1-3.48-2.3,3.69,3.69,0,0,1-.3-1.48,3.78,3.78,0,0,1,7.28-1.42,3.67,3.67,0,0,1,.28,1.42,3.8,3.8,0,0,1-3.78,3.78Z"/><path class="cls-1" d="M123.08,7.31A6.18,6.18,0,0,0,117,12.75a5.84,5.84,0,0,0,0,.73,6.17,6.17,0,0,0,10.79,4.1,6.21,6.21,0,0,0,1.57-4.1A6.18,6.18,0,0,0,123.08,7.31Zm0,10.05a3.88,3.88,0,0,1-3.87-3.54c0-.11,0-.22,0-.34a3.9,3.9,0,0,1,3.88-3.88A3.88,3.88,0,0,1,127,13.48a4,4,0,0,1-.06.7,3.86,3.86,0,0,1-1.59,2.47A3.82,3.82,0,0,1,123.08,17.36Z"/><path class="cls-1" d="M152.36,17.81a3.78,3.78,0,0,0-.17-.6,5.48,5.48,0,0,0-10.65,1.22,4.89,4.89,0,0,0,0,.54,5.41,5.41,0,0,0,.17,1.34,5.49,5.49,0,0,0,10.68-2.5ZM147,22.16A3.22,3.22,0,0,1,143.8,19a2.73,2.73,0,0,1,0-.41A3.19,3.19,0,0,1,150,17.9a3,3,0,0,1,.18.94.53.53,0,0,1,0,.13A3.21,3.21,0,0,1,147,22.16Z"/><path class="cls-1" d="M163.31,6a4.22,4.22,0,1,0,4.21,4.22A4.22,4.22,0,0,0,163.31,6Zm0,6.13a1.92,1.92,0,1,1,1.92-1.91A1.91,1.91,0,0,1,163.31,12.1Z"/><circle class="cls-1" cx="177.43" cy="3.92" r="1.72"/><path class="cls-1" d="M177.43,6.78a2.87,2.87,0,1,1,2.87-2.86A2.87,2.87,0,0,1,177.43,6.78Zm0-3.44a.58.58,0,0,0,0,1.15.58.58,0,0,0,0-1.15Z"/></g></svg>