<svg xmlns="http://www.w3.org/2000/svg" viewBox="0 0 95.71 71.4"><defs><style>.cls-1{fill:#fff;}</style></defs><g id="Calque_1" data-name="Calque 1"><path class="cls-1" d="M95.35,27.44C94,18.91,89.14,10.22,81.22,2.29L78.93,0H0L36.21,36.22,13.35,59.09,24.41,70.15,47.61,47c6.25,4.87,12.81,7.93,19.28,8.93,8.5,1.31,16.5-1.06,22-6.51S96.67,35.93,95.35,27.44ZM56.8,15.7l-9.51,9.51L37.78,15.7Zm21,22.67c-1.91,1.91-4.92,2.66-8.49,2.11a25.51,25.51,0,0,1-10.48-4.66L75.21,19.34a25.72,25.72,0,0,1,4.65,10.49c.58,3.57-.17,6.58-2.08,8.49Z"/><circle class="cls-1" cx="47.58" cy="64.62" r="6.78"/></g></svg>