<svg xmlns="http://www.w3.org/2000/svg" viewBox="0 0 219.26 77.26"><defs><style>.cls-1{fill:#29293d;}</style></defs><g id="Calque_1" data-name="Calque 1"><path class="cls-1" d="M185.87,14.1a27.26,27.26,0,0,0-5.73-4.22,24.27,24.27,0,0,0-13.7-3.35,16.31,16.31,0,0,0-5.21,1.13,8.26,8.26,0,0,0-4.69,4.72,12.08,12.08,0,0,0-.69,3.56c-.14,1.63-.23,3.26-.33,4.89-.23,4.14-.47,8.27-.68,12.41-.21,4.33-.41,8.66-.57,13q-.26,7.07-.45,14.13c-.1,3.86-.16,7.72-.24,11.57A5.17,5.17,0,0,0,157.32,77l.69.24h1.14c.25-.07.5-.16.76-.22a4.7,4.7,0,0,0,2.87-1.91,5.47,5.47,0,0,0,1-3.2c0-1.94.06-3.88.1-5.82l.39-14.75a3.47,3.47,0,0,1,.06-.45,5.66,5.66,0,0,0,1-.11c.94-.12,1.9-.2,2.82-.41A25.16,25.16,0,0,0,177,46.54a37.23,37.23,0,0,0,11.17-12.09,19.26,19.26,0,0,0,2.72-7.32,13.21,13.21,0,0,0-.69-6.5A17.65,17.65,0,0,0,185.87,14.1ZM180.8,25.93a11.13,11.13,0,0,1-.76,2.19,26.69,26.69,0,0,1-7.42,9.06,15.86,15.86,0,0,1-7.2,3.38c-.2,0-.41.06-.7.09.31-8,.8-15.87,1.23-23.81.37-.06.67-.12,1-.15a12.89,12.89,0,0,1,6.33,1.14,17.74,17.74,0,0,1,6,4,6.24,6.24,0,0,1,1.55,2.49A2.76,2.76,0,0,1,180.8,25.93Z"/><path class="cls-1" d="M37,39.36c-1.11-.07-2.22-.27-3.34-.37a38.34,38.34,0,0,0-5.87,0A73.45,73.45,0,0,0,20,40l-1.76.26.67-.71L37.77,20.3c.14-.13.27-.27.4-.41a5.1,5.1,0,0,0-7.43-7c-2.61,2.65-5.26,5.27-7.89,7.92Q12.68,31.09,2.78,41.62L1.42,43.09A4.42,4.42,0,0,0,.2,45.67a1.93,1.93,0,0,1-.2.52v1.14a4.59,4.59,0,0,1,.24.5,5.35,5.35,0,0,0,1.92,2.75,5.89,5.89,0,0,0,3.42,1.06,47.69,47.69,0,0,0,7.74-.48c3.26-.45,6.5-1,9.75-1.48a48.92,48.92,0,0,1,9.44-.62c.9,0,1.8.21,2.71.3a5.27,5.27,0,0,0,3.52-.63,5.08,5.08,0,0,0-1.7-9.4Z"/><path class="cls-1" d="M142.54,0a5.37,5.37,0,0,0-3.65,1.63l-18,18.82c-.29.3-.6.58-.93.91l-2-1.79L99,2a7.59,7.59,0,0,0-1.26-1,5.09,5.09,0,0,0-6,8.13l2.47,2.29,18.32,17.09a3.07,3.07,0,0,1,.25.26c-.17.19-.32.36-.48.52L98.31,44a14.53,14.53,0,0,0-1,1.08,5.1,5.1,0,1,0,7.55,6.86l15.51-16.18c.13-.14.27-.26.42-.41l.57.44a134.58,134.58,0,0,0,11.24,7.71,5.31,5.31,0,0,0,3.2.83,5.1,5.1,0,0,0,2.1-9.56q-4.91-3-9.52-6.4l-.52-.4c.15-.16.27-.31.4-.44q6.53-6.82,13.07-13.63c1.64-1.72,3.3-3.42,4.93-5.15a5.07,5.07,0,0,0,1.28-5.11A5.15,5.15,0,0,0,142.54,0Z"/><path class="cls-1" d="M89.89,14.4A5,5,0,0,0,85,12.8,5.11,5.11,0,0,0,81,17.92c.09,1.5.15,3,.12,4.5a39.21,39.21,0,0,1-2.31,13,21.62,21.62,0,0,1-2.5,5.41,8.24,8.24,0,0,1-1.2,1.37,1.9,1.9,0,0,1-2,.46,4.54,4.54,0,0,1-.68-.3,8.76,8.76,0,0,1-3-2.74,22.48,22.48,0,0,1-2.76-5.16,46.33,46.33,0,0,1-2.29-8.57c-.67-3.71-.94-7.46-1.24-11.21a4.75,4.75,0,0,0-1.28-3,5.11,5.11,0,0,0-8.89,3.65c0,.3.06.6.09.9.27,3.51.61,7,1.14,10.48A52,52,0,0,0,57.6,39.2,30.17,30.17,0,0,0,62.31,47a17.43,17.43,0,0,0,7.47,5.25,11.45,11.45,0,0,0,4.26.66,12.46,12.46,0,0,0,9-4.25,19.84,19.84,0,0,0,3.31-4.9,53.37,53.37,0,0,0,5-22.82c0-1.07-.07-2.35-.17-3.61A4.76,4.76,0,0,0,89.89,14.4Z"/><path class="cls-1" d="M219.14,30.6a9.72,9.72,0,0,0-1.86-4.17,12.57,12.57,0,0,0-7.1-4.57,5.21,5.21,0,0,0-5.87,2.86,2.12,2.12,0,0,1-.44.59,8,8,0,0,0-2.37,8,10.84,10.84,0,0,0,2.2,4.39A10.18,10.18,0,0,0,208,40.86a6.54,6.54,0,0,0,2.39.49,8.38,8.38,0,0,0,6.6-3.06,8.68,8.68,0,0,0,2.26-6.11A13.83,13.83,0,0,0,219.14,30.6Z"/></g></svg>