<svg xmlns="http://www.w3.org/2000/svg" viewBox="0 0 104.43 154.03"><defs><style>.cls-1{fill:#29293d;}</style></defs><g id="Calque_1" data-name="Calque 1"><path class="cls-1" d="M16.38,123.27l-.05-8.07-3.82,6.48H9.9l-3.82-6.2v7.79H.67V105.56h4.9L11.3,115l5.58-9.44h4.87l.05,17.71Z"/><path class="cls-1" d="M36.63,120.18H30l-1.18,3.09h-6l7.69-17.71h5.83L44,123.27H37.84ZM35,115.88l-1.71-4.45-1.71,4.45Z"/><path class="cls-1" d="M62.24,105.56v17.71H57.36l-6.68-8v8H44.9V105.56h4.88l6.68,8v-8Z"/><path class="cls-1" d="M69.22,122.49a9.29,9.29,0,0,1-3.68-12.6l.14-.24a8.93,8.93,0,0,1,3.54-3.3,11.52,11.52,0,0,1,10.21,0,8.86,8.86,0,0,1,3.54,3.3,9.12,9.12,0,0,1-3,12.54c-.18.11-.35.21-.53.3A11.66,11.66,0,0,1,69.22,122.49Zm7.1-4.19a3.83,3.83,0,0,0,1.42-1.54,5.43,5.43,0,0,0,0-4.68,3.86,3.86,0,0,0-1.42-1.55,4,4,0,0,0-4,0,3.86,3.86,0,0,0-1.42,1.55,4.87,4.87,0,0,0-.53,2.34,5,5,0,0,0,.53,2.34,3.83,3.83,0,0,0,1.42,1.54A4,4,0,0,0,76.32,118.3Z"/><path class="cls-1" d="M103.75,105.56v17.71H98.88l-6.69-8v8H86.41V105.56h4.88l6.68,8v-8Z"/><path class="cls-1" d="M12.71,136.73a6.21,6.21,0,0,1,2.79,2.33,6.87,6.87,0,0,1,0,7.08,6.21,6.21,0,0,1-2.79,2.33,10.3,10.3,0,0,1-4.25.8H5.93v4.36H0V135.92H8.46A10.31,10.31,0,0,1,12.71,136.73Zm-2.81,7.4a2.25,2.25,0,0,0,0-3.06,2.62,2.62,0,0,0-1.81-.55H5.93v4.15H8.09a2.63,2.63,0,0,0,1.81-.54Z"/><path class="cls-1" d="M29.57,150.54H22.89l-1.18,3.09h-6l7.68-17.71h5.83l7.69,17.71H30.78Zm-1.63-4.3-1.71-4.45-1.71,4.45Z"/><path class="cls-1" d="M39.57,151.83a8.24,8.24,0,0,1-2.26-6.17v-9.74h5.93v9.56a4.62,4.62,0,0,0,.69,2.83,2.7,2.7,0,0,0,3.8.2l.2-.2a4.62,4.62,0,0,0,.69-2.83v-9.56h5.83v9.74a8.2,8.2,0,0,1-2.26,6.17A10.16,10.16,0,0,1,39.57,151.83Z"/><path class="cls-1" d="M57.11,135.92H63V149H71v4.63H57.11Z"/><path class="cls-1" d="M87.24,149.12v4.51H72.62V135.92h14.3v4.5H78.45v2.08h7.44v4.3H78.45v2.32Z"/><path class="cls-1" d="M93.35,140.55H88.2v-4.63h16.23v4.63H99.28v13.08H93.35Z"/><path class="cls-1" d="M22,83.46H82.42V0H22ZM28.23,6.23h48v71h-48Z"/><polygon class="cls-1" points="0.83 71.04 15.77 71.04 15.77 64.81 7.06 64.81 7.06 18.65 15.77 18.65 15.77 12.43 0.83 12.43 0.83 71.04"/><polygon class="cls-1" points="88.65 12.43 88.65 18.65 97.37 18.65 97.37 64.81 88.65 64.81 88.65 71.04 103.6 71.04 103.6 12.43 88.65 12.43"/><rect class="cls-1" x="36.64" y="28.57" width="6.23" height="26.33"/><rect class="cls-1" x="61.56" y="28.57" width="6.23" height="26.33"/><rect class="cls-1" x="49.1" y="28.57" width="6.23" height="26.33"/></g></svg>