<svg xmlns="http://www.w3.org/2000/svg" viewBox="0 0 128.38 128.38"><defs><style>.cls-1{fill:#ec66ff;}.cls-2{fill:#fff;}</style></defs><g id="Calque_1" data-name="Calque 1"><rect class="cls-1" width="128.38" height="128.38" rx="31.5"/><path class="cls-2" d="M69.16,35a12.93,12.93,0,1,0-24.52,5.74,18.5,18.5,0,0,0-2.85,3.81c-2.62,4.75-8.73,17-8.85,27.51a6.32,6.32,0,0,0,6.33,6.4H58.48l.07-3.69H39.27a2.63,2.63,0,0,1-2.64-2.66c.11-9.72,5.91-21.27,8.4-25.78a9.88,9.88,0,0,1,1.72-2.34h0l0,0,.05,0h0c1.59-1.36,2.45-2,1.49-4.09a9.23,9.23,0,1,1,7.89,4.43l-1.79,3.56a13.23,13.23,0,0,0,1.79.13A12.93,12.93,0,0,0,69.16,35Z"/><path class="cls-2" d="M86,44.14a14.4,14.4,0,0,0-1.68-2.5A12.8,12.8,0,0,0,86.15,35,12.93,12.93,0,1,0,62.41,42l-6.76.63a4.93,4.93,0,0,0-4.72,4.92v1.27a4.93,4.93,0,0,0,4.93,4.93H68.17a4.93,4.93,0,0,1,4.93,4.92h0a4.93,4.93,0,0,1-4.93,4.93H55.86a4.93,4.93,0,0,0-4.93,4.92v4.93a4.93,4.93,0,0,0,4.93,4.92H90.51a4.93,4.93,0,0,0,4.93-5C95.32,62.39,89,49.57,86,44.14Z"/><path class="cls-2" d="M37.79,86.73A8.17,8.17,0,0,1,46,94.9v8.55a2.85,2.85,0,0,1-5.7,0V94.9a2.5,2.5,0,0,0-5,0v8.55a2.86,2.86,0,0,1-5.71,0V94.9a2.5,2.5,0,0,0-5,0v8.55a2.85,2.85,0,0,1-5.7,0V94.9a8.16,8.16,0,0,1,13.48-6.2,8.06,8.06,0,0,1,5.31-2Z"/><path class="cls-2" d="M106.69,100.6a2.85,2.85,0,1,1,0,5.7,9.79,9.79,0,0,1-9.78-9.78v-4H94a2.85,2.85,0,1,1,0-5.7h2.89v-5.5a2.85,2.85,0,1,1,5.7,0v5.5h3.23a2.85,2.85,0,1,1,0,5.7h-3.23v4a4,4,0,0,0,4,4Z"/><path class="cls-2" d="M67.5,96.18h0a9.83,9.83,0,0,0-1-4h0a9.75,9.75,0,0,0-.88-1.46l-.05-.06-.17-.21-.14-.18-.06-.08a9.82,9.82,0,0,0-5.82-3.35h0l-.21,0-.14,0h-.09l-.3,0h-.12l-.29,0h-.93l-.35,0h-.07l-.37,0h0l-.21,0-.18,0h0a9.75,9.75,0,0,0-5.57,3l0,.05-.18.21-.16.18L50,90.4a9.68,9.68,0,0,0-1.74,3.34,2.68,2.68,0,0,0-.07.27l0,.11c0,.1,0,.19-.07.29s0,.13,0,.2,0,.17-.05.25a2.17,2.17,0,0,1,0,.25l0,.22c0,.14,0,.29,0,.44a1.93,1.93,0,0,0,0,.24,1.09,1.09,0,0,0,0,.18h0a9.84,9.84,0,0,0,16,8,2.34,2.34,0,0,0-1-4.11,2.56,2.56,0,0,0-2.11.44,5,5,0,0,1-7.5-1.64H65.12a2.4,2.4,0,0,0,2.4-2.4A3,3,0,0,0,67.5,96.18Zm-13.56-3,.09-.1.11-.12.15-.13a.6.6,0,0,1,.08-.08l.19-.16,0,0,.24-.18h0a4.87,4.87,0,0,1,.87-.47h0l.28-.11.07,0,.24-.08.14,0,.18,0,.18,0,.16,0,.19,0,.15,0H58l.17,0h.17l.18,0,.15,0,.22,0,.09,0,.27.08h0a5.14,5.14,0,0,1,1.93,1.18h0l.21.22a5.2,5.2,0,0,1,.66.93H53.27A4.85,4.85,0,0,1,53.94,93.15Z"/><path class="cls-2" d="M89,96.18h0a9.83,9.83,0,0,0-1-4h0a9.75,9.75,0,0,0-.88-1.46l0-.06-.16-.21-.15-.18-.06-.08a9.82,9.82,0,0,0-5.82-3.35h0l-.21,0-.13,0h-.09l-.31,0H80l-.29,0h-.93l-.35,0h-.07l-.37,0h0l-.21,0-.18,0h0a9.75,9.75,0,0,0-5.57,3l0,.05-.18.21-.16.18-.06.08a9.85,9.85,0,0,0-1.74,3.34,2.68,2.68,0,0,0-.07.27l0,.11c0,.1-.05.19-.07.29s0,.13,0,.2,0,.17-.05.25a2.17,2.17,0,0,1,0,.25l0,.22c0,.14,0,.29,0,.44a1.93,1.93,0,0,0,0,.24,1.09,1.09,0,0,0,0,.18h0a9.84,9.84,0,0,0,16,8,2.34,2.34,0,0,0-1-4.11,2.56,2.56,0,0,0-2.11.44,5,5,0,0,1-7.49-1.64H86.63a2.4,2.4,0,0,0,2.4-2.4A3,3,0,0,0,89,96.18Zm-13.56-3,.09-.1.12-.12a.86.86,0,0,1,.14-.13.6.6,0,0,1,.08-.08l.19-.16,0,0,.24-.18h0a5.24,5.24,0,0,1,.87-.47h0l.28-.11.07,0,.24-.08.14,0,.18,0,.18,0,.16,0,.19,0,.15,0h.68l.17,0h.17l.18,0,.15,0,.22,0,.09,0,.27.08h0a5.14,5.14,0,0,1,1.93,1.18h0l.21.22a5.2,5.2,0,0,1,.66.93H74.78A4.85,4.85,0,0,1,75.45,93.15Z"/></g></svg>