<svg xmlns="http://www.w3.org/2000/svg" viewBox="0 0 75.14 69.91"><defs><style>.cls-1{fill:#fff;}</style></defs><g id="Calque_1" data-name="Calque 1"><path class="cls-1" d="M41.69,10.7a10.71,10.71,0,1,0-20.31,4.76A15.34,15.34,0,0,0,19,18.61c-2.17,3.94-7.24,14.06-7.34,22.8a5.25,5.25,0,0,0,5.21,5.31h16l.06-3.06h-16a2.18,2.18,0,0,1-2.18-2.2h0c.09-8.06,4.89-17.62,7-21.36a8.46,8.46,0,0,1,1.43-1.94h0c1.32-1.13,2-1.66,1.23-3.39a7.66,7.66,0,1,1,6.54,3.67l-1.48,3a9.13,9.13,0,0,0,1.48.11A10.7,10.7,0,0,0,41.69,11Z"/><path class="cls-1" d="M55.61,18.32a11.89,11.89,0,0,0-1.39-2.07,10.71,10.71,0,1,0-18.12.33l-5.6.52a4.09,4.09,0,0,0-3.91,4.08v1a4.08,4.08,0,0,0,4.08,4.08h10.2A4.1,4.1,0,0,1,45,30.34h0a4.08,4.08,0,0,1-4.08,4.08H30.67a4.08,4.08,0,0,0-4.08,4.08h0v4.09a4.08,4.08,0,0,0,4.08,4.08H59.39a4.08,4.08,0,0,0,4.08-4.09v0C63.36,33.44,58.1,22.82,55.61,18.32Z"/><path class="cls-1" d="M15.7,53.61a6.77,6.77,0,0,1,6.77,6.76v7.09a2.37,2.37,0,0,1-4.73,0V60.37a2.07,2.07,0,1,0-4.14,0v7.09a2.37,2.37,0,0,1-4.73,0V60.37a2.08,2.08,0,0,0-4.15,0v7.09a2.36,2.36,0,1,1-4.72,0V60.37a6.77,6.77,0,0,1,11.17-5.13,6.74,6.74,0,0,1,4.4-1.63Z"/><path class="cls-1" d="M72.79,65.1a2.36,2.36,0,0,1,0,4.72,8.1,8.1,0,0,1-8.1-8.11V58.36h-2.4a2.36,2.36,0,0,1,0-4.72h2.4V49.08a2.36,2.36,0,0,1,4.72,0v4.56h2.68a2.36,2.36,0,0,1,0,4.72H69.41v3.35a3.34,3.34,0,0,0,3.34,3.36h0Z"/><path class="cls-1" d="M40.32,61.44h0a8.24,8.24,0,0,0-.84-3.33h0a9.32,9.32,0,0,0-.69-1.18v0c0-.06-.09-.12-.14-.17l-.12-.15V56.5a8.08,8.08,0,0,0-4.82-2.78H31a8.17,8.17,0,0,0-4.62,2.53v0l-.15.17-.13.15v.06a8.08,8.08,0,0,0-1.45,2.77l-.06.23v.09l-.06.24v1.47h0a8.15,8.15,0,0,0,13.23,6.64,1.93,1.93,0,0,0,.3-2.72A2,2,0,0,0,37,64.71a2.18,2.18,0,0,0-1.75.37,4.16,4.16,0,0,1-5.84-.78,4.38,4.38,0,0,1-.37-.58h9.85a2,2,0,0,0,2-2A2.13,2.13,0,0,0,40.32,61.44ZM29.08,58.93a.3.3,0,0,0,.08-.08l.09-.1.12-.11.07-.06.16-.13h0l.2-.15h0a6.23,6.23,0,0,1,.72-.39h0l.23-.09h.06l.19-.06h2.21l.22.06h0a4.21,4.21,0,0,1,1.59,1h0l.17.18a4.46,4.46,0,0,1,.54.77h-7.3A4.72,4.72,0,0,1,29.08,58.93Z"/><path class="cls-1" d="M58.14,61.44h0a8.08,8.08,0,0,0-.84-3.33h0a8.91,8.91,0,0,0-.74-1.21v0l-.13-.17-.12-.15v-.06a8.16,8.16,0,0,0-4.83-2.78h-2.7a8.29,8.29,0,0,0-4.61,2.53l-.05.05a2.09,2.09,0,0,0-.14.17l-.13.15v.06a8.27,8.27,0,0,0-1.45,2.77l-.06.23v.09l-.06.24V61.1a.74.74,0,0,0,0,.21.33.33,0,0,0,0,.14h0a8.15,8.15,0,0,0,13.23,6.64,1.93,1.93,0,0,0,.3-2.72,2,2,0,0,0-1.11-.69,2.18,2.18,0,0,0-1.75.37,4.16,4.16,0,0,1-5.84-.78,4.38,4.38,0,0,1-.37-.58h9.85a2,2,0,0,0,2-2A2.46,2.46,0,0,0,58.14,61.44ZM46.9,58.93l.08-.08.1-.1.11-.11.07-.06.16-.13h0l.21-.15h0a6.23,6.23,0,0,1,.72-.39h0l.23-.09h.06l.2-.06H51l.22.06h0a4.21,4.21,0,0,1,1.59,1h0L53,59a5.15,5.15,0,0,1,.55.77H46.26A5.18,5.18,0,0,1,46.9,58.93Z"/></g></svg>