<svg id="Calque_2" data-name="Calque 2" xmlns="http://www.w3.org/2000/svg" viewBox="0 0 263.19 480.56"><defs><style>.cls-1{fill:hsl(315, 100%, 95%);}.cls-2{fill:hsl(240, 100%, 70%);}.cls-3{fill:hsl(240, 20%, 20%);}.cls-4{fill:#efcabb;}.cls-5{fill:#996d68;}.cls-6{fill:none;stroke:#2f2e41;stroke-linecap:round;stroke-miterlimit:10;stroke-width:5px;}</style></defs><circle class="cls-1" cx="131.59" cy="131.59" r="131.59"/><path class="cls-2" d="M159.1,451.81c-6.23,6.18-8.31,14.13-8.07,23.09a4.6,4.6,0,0,0,3.35,4.31c11.34,3.13,29.17.67,30.25-6a121.8,121.8,0,0,0-.79-17.61Z"/><path class="cls-2" d="M209.23,341.16c14.42,5.74,13.71,15.15,0,27.69-3.61,3.74-5.7,8.22-4.88,14.11.14,9-4.31,11.79-9.1,14.11l-1.45-58Z"/><path class="cls-3" d="M210.17,341.57c9.86-28.75,34-67,37.56-93.17l-65.27,8.36c.09,26.76-2.56,52.12-9.23,75.43a89.51,89.51,0,0,0-2.38,27.43c.53,9.76-12.69,66.09-12.66,88.61-1.15,10.37,28.36,14.11,30.86,3.43l18.1-98.41A79.81,79.81,0,0,1,210.17,341.57Z"/><path class="cls-3" d="M146.19,233.52c-9.5,10.38-27.2,35.42-38,54a32.85,32.85,0,0,0-2.84,6.28c-3.22,9.77-2.55,18.64,5.88,24.73C136,335.88,163.47,343,188.79,364.1l12.92-28.48c-19.15-12.63-37.3-30.08-51.86-33.52,18.17-16.79,33.87-28.1,36.3-40.94l4-45.8Z"/><path class="cls-2" d="M247.73,248.4c1.26-11.38-.26-19.78,0-31.91,1.85-59.61,31.57-93.37,3.35-122.11-6.65-6.06-10.76-7.87-20.86-10.2A2.39,2.39,0,0,1,228.38,82c-.18-2.72-2-5.13-4.6-7.41a7,7,0,0,0-5.23-1.72c-14.77,1.2-28.1,3.87-34.06,14-2.79,3.42-7,5.91-11.6,8.17-16.47,1.06-24.35,12.13-28.78,27.21A78.51,78.51,0,0,1,133.17,145c-5.64,8.09-8.76,15.89-6.7,23.12,3.47,10.12,8.71,22.45,17.67,20,15.57-6.1,11.68-7.11,16.66-9.36,5.56,8.29-6.89,35-11.91,43.38l-.51.83a20.67,20.67,0,0,0,6.26,27.9,73.6,73.6,0,0,1,7.7,6.09c6.8-4.22,11.78-14.33,15.29-22.69,1.66,8.44,1.06,18.4.79,26.64C203.58,262.24,223.8,256.66,247.73,248.4Z"/><path class="cls-4" d="M172.27,59.26l-.76-4.75-.62-17.31,26.22-3.76,13.54,8.24,5.78,6.94-1.53,14.1s-8.21,8.4-8.51,8.4S172.27,59.26,172.27,59.26Z"/><path class="cls-5" d="M144.74,150.34c-5.14,3.83-3.92,16.49-3.29,24.27,1.32,8.44,9,10.73,12.85,9,0,0,9.54-4.93,12.07-10.7,9.46-19.57,14.73-31.42,25.32-43l.27-.26c5.22-4.54,9-8.78,9.88-16.23,1.43.8,2.77,1,4,0,12.13-14.64,4.22-24.26,0-25.19-7-1.83-11.28-2.17-17.49,3.46a15.1,15.1,0,0,0-4.56,7.67,124.65,124.65,0,0,0-2.61,18.54C170.71,131.47,159.51,140.19,144.74,150.34Z"/><path class="cls-3" d="M215.85,37.43c4.54,12.43,3.53,24.4,1.61,36.22-2.25-13.27-2.48-26.32-6.06-28.73Z"/><path class="cls-5" d="M210,170.92c-.38,9.22,4.35,17.27,11.34,25.45-21.15,3.55-41.22-3.88-60.74-16.89L150.18,162c-8-10.77,8.43-23,16.45-12.27,5.41,11.47,6.44,6.41,9.27,18.09a4.29,4.29,0,0,0,3.81,3.28A178.67,178.67,0,0,0,210,170.92Z"/><path class="cls-3" d="M226.63,140.85c-2.4,9.31-4.34,18.13-4.48,26-4.63.8-7.54,1.34-10.71,3.09a61.46,61.46,0,0,1,6.75-4.4,3.75,3.75,0,0,0,1.95-2.54C221.3,157.64,223.92,149.33,226.63,140.85Z"/><path class="cls-5" d="M187,88.83l2.37,6.53,20.54-4.08,8.47-11.74a2.44,2.44,0,0,0,.23-2.42,21.16,21.16,0,0,1-1.74-7.78l-2.38-2c3,.64,3-.87,3.62-4.45.19-5.33.16-8.71.09-9.23a4.3,4.3,0,0,0-.51-2c-2.37-3.78-6.92-.56-5,6.68C212,51.1,210,45,205.8,40.76c-2.9-2.71-7.52-4.75-11.28-2.77a28,28,0,0,1-19.38,5c-1.53,1.37-2.24,3.48-2.57,5.93A26.23,26.23,0,0,0,175,60.34c-1-2.7-2.6-4.15-3.36-2.17-.4,2.29-.51,4.93,4.88,14.5,1.15,1.92,1.72,3,3.25,2.3C181.52,82.55,183.31,85.09,187,88.83Z"/><path class="cls-3" d="M171.68,58.17A14.62,14.62,0,0,0,175,60.34a45.72,45.72,0,0,1-2.25-8.14,13.35,13.35,0,0,1,.53-6.28.76.76,0,0,0,0-.11,4.11,4.11,0,0,1,4-2.62c8.08.27,12.39-1.3,17.77-4.2,5.09-2.47,8.21,0,10.48,2.17a7.68,7.68,0,0,1,.88,1c2,2.83,2.58,4.68,3.77,11.15.84,4.06,2.07,3.35,2.29,2.11.64-6.46,5.46-6.82,5.67-.4.18-16.3-4.53-25.42-12.5-30a24.89,24.89,0,0,0-11.59-3C178.23,21.5,160.08,30.82,171.68,58.17Z"/><path class="cls-3" d="M218.2,60.34c-.38,5.2-2,7-3.7,7,0,5,1.17,6.57,3,6.28A58.74,58.74,0,0,0,218.2,60.34Z"/><polyline class="cls-6" points="237.84 447.97 219.78 271.53 224.92 269.95 245.23 424.76"/><ellipse class="cls-6" cx="206.49" cy="387.97" rx="43.81" ry="13.85"/></svg>