<svg id="Calque_2" data-name="Calque 2" xmlns="http://www.w3.org/2000/svg" viewBox="0 0 360.79 265.92"><defs><style>.cls-1{fill:hsl(315, 100%, 95%);}.cls-2{fill:#efcabb;}.cls-3{fill:hsl(240, 100%, 70%);}.cls-4{fill:hsl(240, 20%, 20%);}</style></defs><circle class="cls-1" cx="179.77" cy="131.59" r="131.59"/><path class="cls-2" d="M177.27,214.31l11.9,16.41c7.11-1.92,14-4,16-8.55l-14.49-21.89Z"/><path class="cls-3" d="M296.89,243.32c20.32.28,22.71,1.85,30.52-1.47,29.3-11.39,17.14-28.66,29.34-27,1.74.24,3.49,1.41,3.72,3.16,1.93,14.14-5.2,21.21-14,39.61-2.24,4.69-7.19,6.28-12.37,6-9.05-.54-24.6-1.15-36.76-1.87Z"/><path class="cls-2" d="M278.81,241.88l17.16,1.4c6.28-.47,7.68,18,1.41,18.48l-20.6-.3C272.1,261,274.13,241.4,278.81,241.88Z"/><path class="cls-3" d="M205.21,222.17a84.37,84.37,0,0,1,17.42,15.11L194.3,240.8l-5.13-10.08Z"/><path class="cls-4" d="M34.93,238.46c15.54,33.29,40.47,27.93,84.46,25.79,1.65-.08,3.3-.08,4.94,0,45.34,1.89,96.82.63,148-.34a5.42,5.42,0,0,0,5.28-4.8l1.63-14.35a5.41,5.41,0,0,0-4.66-6c-22.45-1.56-31.22-1.25-56.13-5.66-35.31-6-70.44-12.6-116.3-11.32l-42.55-7.18Z"/><path class="cls-4" d="M53.43,108.92c.56-.35,38.64-50.43,38.64-50.43"/><path class="cls-4" d="M100.2,61.67c1.09,9.15,2.13,10.42-3.52,28-2,6.57-2.19,10.55-2.8,15.68a16,16,0,0,1-.38,2.07c-1.92,7.6-4.8,9.08-9.81,13.39l-30.56-8.24,29.25-36.3L96.91,57.46Z"/><path class="cls-4" d="M96.72,209.16c9.19-23.41,20.26-44.33,32.94-56.85,19.14-18.09,33.79-10.3,44.74,11.19,7.54,13.71,13,26.69,18.91,37.76a3.43,3.43,0,0,1-.49,3.92c-3.18,3.56-7.64,6.44-13.26,10.32a3.4,3.4,0,0,1-4.41-.45c-10.77-11.33-18.94-20.49-23.71-30.4-2.61,12.52-2.19,29.39-11.36,32.21Z"/><path class="cls-2" d="M78.91,108.17c-4.46.9-9.48-.89-12.8-2.45a35.21,35.21,0,0,1-6.58,4.63c-11.64,4.27-20,1.36-26.1-6.23C43.77,102.32,50,93,49.87,85.86,33.94,57.32,62.26,29.6,90.68,51c12.29,10,8.87,30.45-4.34,50.12-1,1.49-1.77,2.84-2.86,4.2A7.84,7.84,0,0,1,78.91,108.17Z"/><path class="cls-3" d="M74.26,117.44c16.84,7.74,32.93,12.79,46.84,10.09,3.9-1,5.91-1.36,6.06-4.53,0-11.61,1.19-23.14-1.78-35.57a4.2,4.2,0,0,1,3-5l6.27-1.65a4.2,4.2,0,0,1,5.07,2.74,317.27,317.27,0,0,1,12.07,48.67c.57,6-1.13,9-5,11.24-21.38,9.52-39.58,13-57.31,15.58Z"/><path class="cls-4" d="M59.94,110.12c-.56.35,19.32,37.42,19.32,37.42l5.3,27.14C90.3,168,101.43,159.93,87.41,140c-8.62-10-7.41-14.87-3.72-19.22l-8.26-10.07Z"/><path class="cls-4" d="M100.31,65c.94-11.53-11.18-17.15-22.65-22.88-7-3.62-12.7-4.19-19-.86a5,5,0,0,0-.74.45c-9.83,6.93-16.06,17.47-17.7,30A9.5,9.5,0,0,0,40.15,73c.41,17.7-5.29,23.89-9,31.6l3.37,1C45.24,103,52.38,95,51.7,80.64a5.22,5.22,0,0,0-.7-2.38c-7.56-13,1.07-19.28,8-9.1,2.61,4.13,4,3.37,7.75.63,2.91-2,9.16-17.84,25.27-11.3C95.79,60.15,98.37,61.45,100.31,65Z"/><path class="cls-3" d="M7.62,117.85c5.15-4.75,16.94-12.36,24.15-14.4,10.28,3.83,25.94,8.17,28.17,6.67,13.44,27.66,38.87,51.74,20.65,69.68,5.28,8.24,15.16,18.39,21,26.79-25.11,8.88-48.08,19.06-66.66,31.87C25,216.62,40.41,174.12,7,122.81A3.87,3.87,0,0,1,7.62,117.85Z"/><path class="cls-4" d="M66.82,201c-.93-1.53,4.1.07-13.57-9-2.5-1.29-4.6-3-5.29-5.72-3.47-13.71-2.85-11.11-10-30.23C32.52,187.83,43,201.83,66.82,201Z"/><path class="cls-3" d="M25,202a32,32,0,0,0,9.76,12.17A25.24,25.24,0,0,0,47,219.21l56.14,5.87a5.27,5.27,0,0,0,5-2.81c1.56-3.43.85-7.51.53-11.82a3.41,3.41,0,0,0-2.84-3.1c-29.42-5.09-35-8.52-55-13.94a7.31,7.31,0,0,1-5.29-5.71C43,173.47,36,144.76,27.44,127c-.81-1.67-3.41-4-4.32-5.52L14.63,117c-3.72-2.25-6.47-.32-9.24,3.33-2.58,3.38-3.89,6.75-4.86,13.46A41.65,41.65,0,0,0,1.33,151a21.22,21.22,0,0,0,1.23,3.28Z"/><polygon class="cls-4" points="189.07 224.94 133.38 220.4 120.92 222.57 190.61 229.25 189.07 224.94"/><path class="cls-3" d="M187.42,227.8l30.7-53.22a1.55,1.55,0,0,1,1.27-.78l11.24-.48a1.55,1.55,0,0,1,1.42,2.3L203.46,226.4a3.8,3.8,0,0,1-2,1.68l-14.94,6.19a4.45,4.45,0,0,1-1.88.26l-63.33-5.37a2.7,2.7,0,0,1-2.47-2.91l.11-1.31a2.7,2.7,0,0,1,2.91-2.48Z"/><path class="cls-2" d="M126.46,83.52c1.4,5.12,11.53,2.26,10.13-2.87-3.44-11.92-7.18-17.68-16.28-23a15.85,15.85,0,0,0-12.87-1l-.08,0c-3.52,1.53-7.77,3.6-8.56,7.58-.79,4.89.89,9.4,3.14,11,4.28,2.73,9.72,1.27,15.89-1C124.36,72,124.49,79.38,126.46,83.52Z"/><path class="cls-2" d="M108.69,210.45c5.84.44,10.86.92,15.21,1.24,4,.54,33.25-4.72,40.64,11.11a2.11,2.11,0,0,1-.23,2.2,4.3,4.3,0,0,1-4.95.9,10.64,10.64,0,0,0-4-1.12c-6.9-.34-16.58.63-24.67-1.07l-22.57-1.44C104.64,222.12,105.16,210.29,108.69,210.45Z"/></svg>