<svg xmlns="http://www.w3.org/2000/svg" viewBox="0 0 231.43 97.38"><defs><style>.cls-1{fill:#29293d;}.cls-2{fill:#66f;}</style></defs><g id="Calque_1" data-name="Calque 1"><polygon class="cls-1" points="16.05 54.68 0 54.68 16.05 0.68 32.09 0.68 16.05 54.68"/><circle class="cls-2" cx="24.07" cy="37.66" r="17.02"/><polygon class="cls-1" points="32.09 54.68 48.14 54.68 32.09 0.68 16.05 0.68 32.09 54.68"/><path class="cls-1" d="M56.06,6.21a5,5,0,0,1,1.55-3.82,6.69,6.69,0,0,1,8.44,0,5.44,5.44,0,0,1,0,7.67,6.62,6.62,0,0,1-8.39,0A5.1,5.1,0,0,1,56.06,6.21Zm11,48.6H56.66V16.2H67Z"/><path class="cls-1" d="M91.56,47.21a6.76,6.76,0,0,0,4.64-1.57,5.47,5.47,0,0,0,1.85-4.18h9.67a13.13,13.13,0,0,1-2.14,7.19,14,14,0,0,1-5.76,5.07,17.94,17.94,0,0,1-8.08,1.8q-8.28,0-13.06-5.26T73.9,35.72V35q0-8.92,4.74-14.24t13-5.31q7.24,0,11.61,4.12a14.53,14.53,0,0,1,4.44,11H98a7.1,7.1,0,0,0-1.85-4.9,6.9,6.9,0,0,0-9.75.29c-.14.15-.27.3-.4.46-1.23,1.75-1.85,4.59-1.84,8.52v1.07q0,6,1.82,8.58A6.28,6.28,0,0,0,91.56,47.21Z"/><path class="cls-1" d="M136,54.81a11.56,11.56,0,0,1-1-3.46,12.5,12.5,0,0,1-9.74,4.17,13.69,13.69,0,0,1-9.4-3.28A10.55,10.55,0,0,1,112.11,44a10.9,10.9,0,0,1,4.55-9.42q4.55-3.28,13.15-3.32h4.74V29a6.36,6.36,0,0,0-1.37-4.28,5.41,5.41,0,0,0-4.34-1.61,6.11,6.11,0,0,0-4.08,1.25,4.24,4.24,0,0,0-1.48,3.43H112.93A10.37,10.37,0,0,1,115,21.59a13.68,13.68,0,0,1,5.85-4.48,21.54,21.54,0,0,1,8.5-1.62q7.13,0,11.33,3.58t4.19,10.08V45.89q0,5.49,1.53,8.31v.61Zm-8.52-7.17a8.83,8.83,0,0,0,4.21-1,6.76,6.76,0,0,0,2.85-2.73V37.27h-3.85q-7.74,0-8.25,5.36v.6a4.12,4.12,0,0,0,1.35,3.18A5.33,5.33,0,0,0,127.46,47.64Z"/><path class="cls-1" d="M174.48,25.87a27.14,27.14,0,0,0-3.71-.29c-3.9,0-6.45,1.32-7.67,4V54.84H152.79V16.2h9.74l.29,4.6q3.1-5.31,8.6-5.31a10.88,10.88,0,0,1,3.21.46Z"/><path class="cls-1" d="M177.16,35.22q0-9,4-14.38a13.13,13.13,0,0,1,11.12-5.35,11.82,11.82,0,0,1,9.31,4.21V0h10.35V54.81h-9.31l-.5-4.11a12.1,12.1,0,0,1-9.92,4.82,13.09,13.09,0,0,1-10.94-5.37Q177.16,44.78,177.16,35.22Zm10.31.77q0,5.43,1.89,8.32a6.16,6.16,0,0,0,5.5,2.9,6.9,6.9,0,0,0,6.74-4V27.91a6.8,6.8,0,0,0-6.67-4Q187.48,23.87,187.47,36Z"/><path class="cls-1" d="M219.87,6.21a5.09,5.09,0,0,1,1.55-3.82,6.69,6.69,0,0,1,8.44,0,5.46,5.46,0,0,1,0,7.67,6.62,6.62,0,0,1-8.39,0A5,5,0,0,1,219.87,6.21Zm11,48.6H220.48V16.2h10.35Z"/><path class="cls-2" d="M162,86.24A2.94,2.94,0,0,1,163,84a3.63,3.63,0,0,1,4.7,0,2.94,2.94,0,0,1,.93,2.25,2.87,2.87,0,0,1-.92,2.22,3.71,3.71,0,0,1-4.72,0A2.9,2.9,0,0,1,162,86.24Z"/><path class="cls-2" d="M193.28,78.43a13,13,0,0,1-2.28,8,7.31,7.31,0,0,1-6.15,3,6.71,6.71,0,0,1-5.32-2.29V97.38h-5.85v-30h5.38l.2,2.12a6.85,6.85,0,0,1,5.51-2.52,7.36,7.36,0,0,1,6.24,3c1.48,2,2.23,4.71,2.23,8.19Zm-5.8-.42a8.49,8.49,0,0,0-1.08-4.68,3.49,3.49,0,0,0-3.12-1.65,3.81,3.81,0,0,0-3.75,2.09v8.89a3.85,3.85,0,0,0,3.79,2.15q4.13,0,4.12-6.8Z"/><path class="cls-2" d="M209,72.81a16.2,16.2,0,0,0-2.09-.16q-3.3,0-4.32,2.22V89.09h-5.8V67.34h5.45l.16,2.59a5.38,5.38,0,0,1,4.84-3,5.87,5.87,0,0,1,1.81.26Z"/><path class="cls-2" d="M210.2,78a12.76,12.76,0,0,1,1.25-5.76A9,9,0,0,1,215,68.35,10.53,10.53,0,0,1,220.46,67a9.84,9.84,0,0,1,7.18,2.69,10.8,10.8,0,0,1,3.1,7.3v1.49a11.33,11.33,0,0,1-2.79,8,10.82,10.82,0,0,1-15,0,11.56,11.56,0,0,1-2.8-8.19Zm5.8.41a8,8,0,0,0,1.17,4.73,3.8,3.8,0,0,0,3.33,1.64,3.85,3.85,0,0,0,3.29-1.62c.79-1.08,1.18-2.8,1.19-5.17a8,8,0,0,0-1.19-4.71,3.87,3.87,0,0,0-3.33-1.67,3.79,3.79,0,0,0-3.29,1.66A9.05,9.05,0,0,0,216,78.44Z"/></g></svg>