<svg id="Calque_1" data-name="Calque 1" xmlns="http://www.w3.org/2000/svg" xmlns:xlink="http://www.w3.org/1999/xlink" viewBox="0 0 719.9 261.82"><defs><style>.cls-1{fill:#29293d;}.cls-2{fill:#66f;}.cls-3{fill:url(#Dégradé_sans_nom_21);}</style><linearGradient id="Dégradé_sans_nom_21" x1="40.68" y1="201.52" x2="199.13" y2="155.22" gradientUnits="userSpaceOnUse"><stop offset="0.19" stop-color="#66f" stop-opacity="0"/><stop offset="0.26" stop-color="#5656cc" stop-opacity="0.27"/><stop offset="0.39" stop-color="#42428c" stop-opacity="0.59"/><stop offset="0.53" stop-color="#34345f" stop-opacity="0.82"/><stop offset="0.7" stop-color="#2b2b45" stop-opacity="0.96"/><stop offset="1" stop-color="#29293d"/></linearGradient></defs><path class="cls-1" d="M332.7,96.25H301.53l-6.07,23.16H271.29L306.66,6.22h20.91l35.61,113.19H338.77Zm-26.2-19h21.15L317.08,36.85Z"/><path class="cls-1" d="M373.46,13.53a11.37,11.37,0,0,1,3.27-8.4,13.25,13.25,0,0,1,17.41,0,11.37,11.37,0,0,1,3.27,8.4,11.58,11.58,0,0,1-3.23,8.39,13.09,13.09,0,0,1-17.49,0A11.58,11.58,0,0,1,373.46,13.53Zm23.09,105.88H374.47V35.3h22.08Z"/><path class="cls-1" d="M444.77,102.7q9.56,0,9.72-12.44h20.68Q475,104,466.69,112.49T445.24,121q-16.26,0-24.8-10.11t-8.71-29.77V74.4q0-19.83,8.43-30.24t24.92-10.42q13.92,0,21.92,8.59t8.17,24.37H454.49q-.08-7.06-2.33-10.88T444.69,52q-5.74,0-8.24,4.08t-2.64,15.82v8.55q0,10.28,1,14.35a10.76,10.76,0,0,0,3.34,6A10.15,10.15,0,0,0,444.77,102.7Z"/><path class="cls-1" d="M528.36,119.41a30.67,30.67,0,0,1-1.86-6.53,18.79,18.79,0,0,1-16,8.09A23.68,23.68,0,0,1,493,114q-7-7-7-18.11,0-13.22,8.44-20.45T518.72,68h6.69V61.26q0-5.67-1.95-8a7,7,0,0,0-5.67-2.33q-8.25,0-8.24,9.64h-22a24.35,24.35,0,0,1,8.74-19.24q8.74-7.57,22.12-7.58,13.85,0,21.42,7.19t7.58,20.57v39.57q.15,10.88,3.11,17v1.32Zm-13-15.7a12.24,12.24,0,0,0,6.22-1.48,10.41,10.41,0,0,0,3.81-3.5V81.24h-5.29a11.29,11.29,0,0,0-8.82,3.58q-3.23,3.57-3.23,9.56Q508.07,103.71,515.38,103.71Z"/><path class="cls-1" d="M605.66,56.52l-7.31-.62q-9,0-12.2,7.93v55.58H564.07V35.3h20.75l.63,9.09q5.2-10.65,14.38-10.65a15.43,15.43,0,0,1,6.06,1Z"/><path class="cls-1" d="M613.3,74.79q0-20.69,7-30.87t20.37-10.18q9.72,0,16.17,8.4V0H679V119.41H659l-1-8.55Q651.24,121,640.58,121q-13.22,0-20.17-10.11t-7.11-29.7Zm22.08,5.52q0,12.43,2.64,17.38t8.94,4.93a10.72,10.72,0,0,0,9.87-5.83V58.39q-3.26-6.22-9.79-6.22-6.07,0-8.87,4.89t-2.79,17.42Z"/><path class="cls-1" d="M696,13.53a11.36,11.36,0,0,1,3.26-8.4,13.27,13.27,0,0,1,17.42,0,11.4,11.4,0,0,1,3.26,8.4,11.57,11.57,0,0,1-3.22,8.39,13.1,13.1,0,0,1-17.5,0A11.57,11.57,0,0,1,696,13.53Zm23.09,105.88H697V35.3h22.08Z"/><path class="cls-2" d="M491.21,220.56a11,11,0,0,1,3.35-8.25,12,12,0,0,1,8.73-3.24,12.32,12.32,0,0,1,8.69,3.2,10.79,10.79,0,0,1,3.47,8.29,10.6,10.6,0,0,1-3.5,8.29,12.51,12.51,0,0,1-8.66,3.13,12.23,12.23,0,0,1-8.66-3.17A10.72,10.72,0,0,1,491.21,220.56Z"/><path class="cls-2" d="M596.29,193.82q0,18.78-6.45,28.81t-19.19,10A18.56,18.56,0,0,1,555,224.76v37.06H534.18V151.45h19.3l.74,7.3q6-8.77,16.28-8.77,12.75,0,19.2,9.28t6.59,28.44Zm-20.78-5.23q0-11.58-2.54-16.36c-1.69-3.19-4.56-4.79-8.58-4.79a9.9,9.9,0,0,0-9.36,5.38v37.35q2.81,5.16,9.5,5.16,6.19,0,8.59-5.23t2.39-16.28Z"/><path class="cls-2" d="M649,171.57l-6.93-.59q-8.55,0-11.57,7.51v52.68H609.57V151.45h19.67l.59,8.62Q634.77,150,643.46,150a14.57,14.57,0,0,1,5.75,1Z"/><path class="cls-2" d="M655.34,188.73q0-18.12,8.55-28.44T687.54,150q15.26,0,23.8,10.31t8.54,28.59V194q0,18.21-8.47,28.44t-23.72,10.25q-15.33,0-23.84-10.28t-8.51-28.55ZM676.27,194q0,21.38,11.42,21.37,10.53,0,11.34-17.83l.08-8.77q0-10.9-3-16.17t-8.55-5.27q-5.31,0-8.29,5.27t-3,16.17Z"/><polygon class="cls-1" points="77.81 261.82 0 261.82 77.81 0 155.61 0 77.81 261.82"/><circle class="cls-2" cx="116.71" cy="179.31" r="82.52"/><circle class="cls-3" cx="116.71" cy="179.31" r="82.52"/><polygon class="cls-1" points="155.61 261.82 233.42 261.82 155.61 0 77.81 0 155.61 261.82"/></svg>